<svg width="90" height="90" viewBox="0 0 90 90" fill="none" xmlns="http://www.w3.org/2000/svg">
  <rect width="90" height="90" fill="#1a1a1a"/>
  <g filter="url(#filter0_i_682_6)">
    <path d="M27 18H63V21.6922H27V18Z" fill="#373737"/>
    <path d="M27 18H63V21.6922H27V18Z" fill="url(#paint0_linear_682_6)" fill-opacity="0.6"/>
    <path d="M27 18H63V21.6922H27V18Z" fill="#6A297D" fill-opacity="0.4"/>
    <path d="M27 24.7225H63V28.4147H27V24.7225Z" fill="#373737"/>
    <path d="M27 24.7225H63V28.4147H27V24.7225Z" fill="url(#paint1_linear_682_6)" fill-opacity="0.6"/>
    <path d="M27 24.7225H63V28.4147H27V24.7225Z" fill="#6A297D" fill-opacity="0.4"/>
    <path d="M42.6052 28.4147V75H38.8843V28.4147H42.6052Z" fill="#373737"/>
    <path d="M42.6052 28.4147V75H38.8843V28.4147H42.6052Z" fill="url(#paint2_linear_682_6)" fill-opacity="0.6"/>
    <path d="M42.6052 28.4147V75H38.8843V28.4147H42.6052Z" fill="#6A297D" fill-opacity="0.4"/>
    <path d="M51.2702 28.4147V75H47.5494V28.4147H51.2702Z" fill="#373737"/>
    <path d="M51.2702 28.4147V75H47.5494V28.4147H51.2702Z" fill="url(#paint3_linear_682_6)" fill-opacity="0.6"/>
    <path d="M51.2702 28.4147V75H47.5494V28.4147H51.2702Z" fill="#6A297D" fill-opacity="0.4"/>
  </g>
  <defs>
    <filter id="filter0_i_682_6" x="27" y="18" width="36.6329" height="58.2658" filterUnits="userSpaceOnUse" color-interpolation-filters="sRGB">
      <feFlood flood-opacity="0" result="BackgroundImageFix"/>
      <feBlend mode="normal" in="SourceGraphic" in2="BackgroundImageFix" result="shape"/>
      <feColorMatrix in="SourceAlpha" type="matrix" values="0 0 0 0 0 0 0 0 0 0 0 0 0 0 0 0 0 0 127 0" result="hardAlpha"/>
      <feOffset dx="0.632922" dy="1.26584"/>
      <feGaussianBlur stdDeviation="0.632922"/>
      <feComposite in2="hardAlpha" operator="arithmetic" k2="-1" k3="1"/>
      <feColorMatrix type="matrix" values="0 0 0 0 1 0 0 0 0 1 0 0 0 0 1 0 0 0 1 0"/>
      <feBlend mode="normal" in2="shape" result="effect1_innerShadow_682_6"/>
    </filter>
    <linearGradient id="paint0_linear_682_6" x1="27" y1="22.895" x2="51.026" y2="78.7185" gradientUnits="userSpaceOnUse">
      <stop stop-color="#D4D4D4"/>
      <stop offset="1"/>
    </linearGradient>
    <linearGradient id="paint1_linear_682_6" x1="27" y1="22.895" x2="51.026" y2="78.7185" gradientUnits="userSpaceOnUse">
      <stop stop-color="#D4D4D4"/>
      <stop offset="1"/>
    </linearGradient>
    <linearGradient id="paint2_linear_682_6" x1="27" y1="22.895" x2="51.026" y2="78.7185" gradientUnits="userSpaceOnUse">
      <stop stop-color="#D4D4D4"/>
      <stop offset="1"/>
    </linearGradient>
    <linearGradient id="paint3_linear_682_6" x1="27" y1="22.895" x2="51.026" y2="78.7185" gradientUnits="userSpaceOnUse">
      <stop stop-color="#D4D4D4"/>
      <stop offset="1"/>
    </linearGradient>
  </defs>
</svg>
