<svg width="203" height="87" viewBox="0 0 203 87" fill="none" xmlns="http://www.w3.org/2000/svg">
<defs>
<linearGradient id="metallic" x1="0" y1="0" x2="0" y2="1">
<stop offset="0%" stop-color="#FFFFFF" stop-opacity="0.9"/>
<stop offset="30%" stop-color="#6A297D" stop-opacity="0.7"/>
<stop offset="70%" stop-color="#2A1930" stop-opacity="0.8"/>
<stop offset="100%" stop-color="#1A1020" stop-opacity="0.95"/>
</linearGradient>
<linearGradient id="sidelight" x1="0" y1="0" x2="1" y2="0">
<stop offset="0%" stop-color="#FFFFFF" stop-opacity="0.9"/>
<stop offset="20%" stop-color="#FFFFFF" stop-opacity="0.2"/>
<stop offset="100%" stop-color="#6A297D" stop-opacity="0.1"/>
</linearGradient>
<linearGradient id="toplight" x1="0" y1="0" x2="0" y2="1">
<stop offset="0%" stop-color="#FFFFFF" stop-opacity="0.95"/>
<stop offset="40%" stop-color="#FFFFFF" stop-opacity="0"/>
</linearGradient>
<linearGradient id="purpleOverlay" x1="0" y1="0" x2="0" y2="1">
<stop offset="0%" stop-color="#8A3D9D" stop-opacity="0.6"/>
<stop offset="100%" stop-color="#6A297D" stop-opacity="0.8"/>
</linearGradient>
</defs>
<g>
<path d="M26.584 14.5571H63.0774V18.329H26.584V14.5571Z" fill="url(#metallic)" style="mix-blend-mode: multiply"/>
<path d="M26.584 21.4245H63.0774V25.1963H26.584V21.4245Z" fill="url(#metallic)" style="mix-blend-mode: multiply"/>
<path d="M42.403 25.1963V72.7859H38.6312V25.1963H42.403Z" fill="url(#metallic)" style="mix-blend-mode: multiply"/>
<path d="M51.1868 25.1963V72.7859H47.415V25.1963H51.1868Z" fill="url(#metallic)" style="mix-blend-mode: multiply"/>
<path d="M114.522 69.0752H140.672V72.847H114.522V69.0752Z" fill="url(#metallic)" style="mix-blend-mode: multiply"/>
<path d="M114.522 14.5571V72.847H110.75L110.75 14.5571L114.522 14.5571Z" fill="url(#metallic)" style="mix-blend-mode: multiply"/>
<path d="M149.752 69.0752H175.902V72.847H149.752V69.0752Z" fill="url(#metallic)" style="mix-blend-mode: multiply"/>
<path d="M149.752 14.5571V72.847H145.98L145.98 14.5571L149.752 14.5571Z" fill="url(#metallic)" style="mix-blend-mode: multiply"/>
<path d="M121.407 62.7862H140.671V66.558H121.407V62.7862Z" fill="url(#metallic)" style="mix-blend-mode: multiply"/>
<path d="M121.407 14.5571V66.558H117.635L117.635 14.5571L121.407 14.5571Z" fill="url(#metallic)" style="mix-blend-mode: multiply"/>
<path d="M156.639 62.7862H175.904V66.558H156.639V62.7862Z" fill="url(#metallic)" style="mix-blend-mode: multiply"/>
<path d="M156.639 14.5571V66.558H152.867L152.867 14.5571L156.639 14.5571Z" fill="url(#metallic)" style="mix-blend-mode: multiply"/>
<path d="M77.6253 24.6839H93.4484C97.8142 24.6839 101.36 28.2297 101.36 32.5954V54.7477C101.36 59.1134 97.8142 62.6592 93.4484 62.6592H77.6253C73.2596 62.6592 69.7138 59.1134 69.7138 54.7477V32.5954C69.7138 28.2297 73.2596 24.6839 77.6253 24.6839Z" fill="url(#metallic)" style="mix-blend-mode: multiply"/>
<path d="M70.0316 16.4559H101.045C109.611 16.4559 116.558 23.4033 116.558 31.9625V56.8806C116.558 65.4398 109.611 72.3872 101.045 72.3872H70.0316C61.4656 72.3872 54.5182 65.4398 54.5182 56.8806V31.9625C54.5182 23.4033 61.4656 16.4559 70.0316 16.4559Z" fill="url(#metallic)" style="mix-blend-mode: multiply"/>
<circle cx="85.5376" cy="43.9878" r="2.53169" fill="url(#metallic)" style="mix-blend-mode: multiply"/>
<path d="M70 24.5h45v4.5H70z" fill="url(#metallic)" style="mix-blend-mode: multiply"/>
<path d="M70 58h45v4.5H70z" fill="url(#metallic)" style="mix-blend-mode: multiply"/>
<path d="M70 24.5h4.5v38H70z" fill="url(#metallic)" style="mix-blend-mode: multiply"/>
<path d="M110.5 24.5h4.5v38h-4.5z" fill="url(#metallic)" style="mix-blend-mode: multiply"/>
<path d="M82 36.5h21v4H82z" fill="url(#metallic)" style="mix-blend-mode: multiply"/>
<path d="M82 46.5h21v4H82z" fill="url(#metallic)" style="mix-blend-mode: multiply"/>
<path d="M82 36.5h4v14h-4z" fill="url(#metallic)" style="mix-blend-mode: multiply"/>
<path d="M99 36.5h4v14h-4z" fill="url(#metallic)" style="mix-blend-mode: multiply"/>
<circle cx="92.5" cy="43.5" r="2" fill="url(#metallic)" style="mix-blend-mode: multiply"/>
<g style="mix-blend-mode: soft-light">
<path d="M26.584 14.5571H63.0774V18.329H26.584V14.5571Z" fill="url(#sidelight)"/>
<path d="M26.584 21.4245H63.0774V25.1963H26.584V21.4245Z" fill="url(#sidelight)"/>
<path d="M42.403 25.1963V72.7859H38.6312V25.1963H42.403Z" fill="url(#sidelight)"/>
<path d="M51.1868 25.1963V72.7859H47.415V25.1963H51.1868Z" fill="url(#sidelight)"/>
<path d="M114.522 69.0752H140.672V72.847H114.522V69.0752Z" fill="url(#sidelight)"/>
<path d="M114.522 14.5571V72.847H110.75L110.75 14.5571L114.522 14.5571Z" fill="url(#sidelight)"/>
<path d="M149.752 69.0752H175.902V72.847H149.752V69.0752Z" fill="url(#sidelight)"/>
<path d="M149.752 14.5571V72.847H145.98L145.98 14.5571L149.752 14.5571Z" fill="url(#sidelight)"/>
<path d="M121.407 62.7862H140.671V66.558H121.407V62.7862Z" fill="url(#sidelight)"/>
<path d="M121.407 14.5571V66.558H117.635L117.635 14.5571L121.407 14.5571Z" fill="url(#sidelight)"/>
<path d="M156.639 62.7862H175.904V66.558H156.639V62.7862Z" fill="url(#sidelight)"/>
<path d="M156.639 14.5571V66.558H152.867L152.867 14.5571L156.639 14.5571Z" fill="url(#sidelight)"/>
<path d="M77.6253 24.6839H93.4484C97.8142 24.6839 101.36 28.2297 101.36 32.5954V54.7477C101.36 59.1134 97.8142 62.6592 93.4484 62.6592H77.6253C73.2596 62.6592 69.7138 59.1134 69.7138 54.7477V32.5954C69.7138 28.2297 73.2596 24.6839 77.6253 24.6839Z" fill="url(#sidelight)"/>
<path d="M70.0316 16.4559H101.045C109.611 16.4559 116.558 23.4033 116.558 31.9625V56.8806C116.558 65.4398 109.611 72.3872 101.045 72.3872H70.0316C61.4656 72.3872 54.5182 65.4398 54.5182 56.8806V31.9625C54.5182 23.4033 61.4656 16.4559 70.0316 16.4559Z" fill="url(#sidelight)"/>
<circle cx="85.5376" cy="43.9878" r="2.53169" fill="url(#sidelight)"/>
</g>
<g style="mix-blend-mode: overlay">
<path d="M26.584 14.5571H63.0774V18.329H26.584V14.5571Z" fill="url(#toplight)"/>
<path d="M26.584 21.4245H63.0774V25.1963H26.584V21.4245Z" fill="url(#toplight)"/>
<path d="M42.403 25.1963V72.7859H38.6312V25.1963H42.403Z" fill="url(#toplight)"/>
<path d="M51.1868 25.1963V72.7859H47.415V25.1963H51.1868Z" fill="url(#toplight)"/>
<path d="M114.522 69.0752H140.672V72.847H114.522V69.0752Z" fill="url(#toplight)"/>
<path d="M114.522 14.5571V72.847H110.75L110.75 14.5571L114.522 14.5571Z" fill="url(#toplight)"/>
<path d="M149.752 69.0752H175.902V72.847H149.752V69.0752Z" fill="url(#toplight)"/>
<path d="M149.752 14.5571V72.847H145.98L145.98 14.5571L149.752 14.5571Z" fill="url(#toplight)"/>
<path d="M121.407 62.7862H140.671V66.558H121.407V62.7862Z" fill="url(#toplight)"/>
<path d="M121.407 14.5571V66.558H117.635L117.635 14.5571L121.407 14.5571Z" fill="url(#toplight)"/>
<path d="M156.639 62.7862H175.904V66.558H156.639V62.7862Z" fill="url(#toplight)"/>
<path d="M156.639 14.5571V66.558H152.867L152.867 14.5571L156.639 14.5571Z" fill="url(#toplight)"/>
<path d="M77.6253 24.6839H93.4484C97.8142 24.6839 101.36 28.2297 101.36 32.5954V54.7477C101.36 59.1134 97.8142 62.6592 93.4484 62.6592H77.6253C73.2596 62.6592 69.7138 59.1134 69.7138 54.7477V32.5954C69.7138 28.2297 73.2596 24.6839 77.6253 24.6839Z" fill="url(#toplight)"/>
<path d="M70.0316 16.4559H101.045C109.611 16.4559 116.558 23.4033 116.558 31.9625V56.8806C116.558 65.4398 109.611 72.3872 101.045 72.3872H70.0316C61.4656 72.3872 54.5182 65.4398 54.5182 56.8806V31.9625C54.5182 23.4033 61.4656 16.4559 70.0316 16.4559Z" fill="url(#toplight)"/>
<circle cx="85.5376" cy="43.9878" r="2.53169" fill="url(#toplight)"/>
</g>
<g style="mix-blend-mode: color">
<path d="M26.584 14.5571H63.0774V18.329H26.584V14.5571Z" fill="url(#purpleOverlay)"/>
<path d="M26.584 21.4245H63.0774V25.1963H26.584V21.4245Z" fill="url(#purpleOverlay)"/>
<path d="M42.403 25.1963V72.7859H38.6312V25.1963H42.403Z" fill="url(#purpleOverlay)"/>
<path d="M51.1868 25.1963V72.7859H47.415V25.1963H51.1868Z" fill="url(#purpleOverlay)"/>
<path d="M114.522 69.0752H140.672V72.847H114.522V69.0752Z" fill="url(#purpleOverlay)"/>
<path d="M114.522 14.5571V72.847H110.75L110.75 14.5571L114.522 14.5571Z" fill="url(#purpleOverlay)"/>
<path d="M149.752 69.0752H175.902V72.847H149.752V69.0752Z" fill="url(#purpleOverlay)"/>
<path d="M149.752 14.5571V72.847H145.98L145.98 14.5571L149.752 14.5571Z" fill="url(#purpleOverlay)"/>
<path d="M121.407 62.7862H140.671V66.558H121.407V62.7862Z" fill="url(#purpleOverlay)"/>
<path d="M121.407 14.5571V66.558H117.635L117.635 14.5571L121.407 14.5571Z" fill="url(#purpleOverlay)"/>
<path d="M156.639 62.7862H175.904V66.558H156.639V62.7862Z" fill="url(#purpleOverlay)"/>
<path d="M156.639 14.5571V66.558H152.867L152.867 14.5571L156.639 14.5571Z" fill="url(#purpleOverlay)"/>
<path d="M77.6253 24.6839H93.4484C97.8142 24.6839 101.36 28.2297 101.36 32.5954V54.7477C101.36 59.1134 97.8142 62.6592 93.4484 62.6592H77.6253C73.2596 62.6592 69.7138 59.1134 69.7138 54.7477V32.5954C69.7138 28.2297 73.2596 24.6839 77.6253 24.6839Z" fill="url(#purpleOverlay)"/>
<path d="M70.0316 16.4559H101.045C109.611 16.4559 116.558 23.4033 116.558 31.9625V56.8806C116.558 65.4398 109.611 72.3872 101.045 72.3872H70.0316C61.4656 72.3872 54.5182 65.4398 54.5182 56.8806V31.9625C54.5182 23.4033 61.4656 16.4559 70.0316 16.4559Z" fill="url(#purpleOverlay)"/>
<circle cx="85.5376" cy="43.9878" r="2.53169" fill="url(#purpleOverlay)"/>
</g>
<g>
  <rect 
    x="77.6253" 
    y="24.6839" 
    width="15.8231" 
    height="37.9753" 
    rx="7.91153" 
    fill="url(#metallic)"
    style="mix-blend-mode: multiply"
  />
  
  <rect 
    x="70.0316" 
    y="16.4559" 
    width="31.0132" 
    height="54.4313" 
    rx="15.5066" 
    fill="url(#metallic)"
    style="mix-blend-mode: multiply"
  />
  
  <circle 
    cx="85.5376" 
    cy="43.9878" 
    r="2.53169" 
    fill="url(#metallic)"
    style="mix-blend-mode: multiply"
  />
</g>
<g style="mix-blend-mode: soft-light">
  <rect x="77.6253" y="24.6839" width="15.8231" height="37.9753" rx="7.91153" fill="url(#sidelight)"/>
  <rect x="70.0316" y="16.4559" width="31.0132" height="54.4313" rx="15.5066" fill="url(#sidelight)"/>
  <circle cx="85.5376" cy="43.9878" r="2.53169" fill="url(#sidelight)"/>
</g>
<g style="mix-blend-mode: overlay">
  <rect x="77.6253" y="24.6839" width="15.8231" height="37.9753" rx="7.91153" fill="url(#toplight)"/>
  <rect x="70.0316" y="16.4559" width="31.0132" height="54.4313" rx="15.5066" fill="url(#toplight)"/>
  <circle cx="85.5376" cy="43.9878" r="2.53169" fill="url(#toplight)"/>
</g>
<g style="mix-blend-mode: color">
  <rect x="77.6253" y="24.6839" width="15.8231" height="37.9753" rx="7.91153" fill="url(#purpleOverlay)"/>
  <rect x="70.0316" y="16.4559" width="31.0132" height="54.4313" rx="15.5066" fill="url(#purpleOverlay)"/>
  <circle cx="85.5376" cy="43.9878" r="2.53169" fill="url(#purpleOverlay)"/>
</g>
</g>
</svg>
