<svg width="90" height="90" viewBox="0 0 90 90" fill="none" xmlns="http://www.w3.org/2000/svg">
<g clip-path="url(#clip0_682_6)">
<rect x="-2" y="-3" width="93" height="93" fill="#1B1B1B"/>
<g filter="url(#filter0_i_682_6)">
<path d="M23 11.6665H67V16.1792H23V11.6665Z" fill="#D7D7D7"/>
<path d="M23 11.6665H67V16.1792H23V11.6665Z" fill="url(#paint0_linear_682_6)" fill-opacity="0.6"/>
<path d="M23 11.6665H67V16.1792H23V11.6665Z" fill="#6A297D" fill-opacity="0.4"/>
<path d="M23 19.8828H67V24.3956H23V19.8828Z" fill="#D7D7D7"/>
<path d="M23 19.8828H67V24.3956H23V19.8828Z" fill="url(#paint1_linear_682_6)" fill-opacity="0.6"/>
<path d="M23 19.8828H67V24.3956H23V19.8828Z" fill="#6A297D" fill-opacity="0.4"/>
<path d="M42.073 24.3956V81.3332H37.5253V24.3956H42.073Z" fill="#D7D7D7"/>
<path d="M42.073 24.3956V81.3332H37.5253V24.3956H42.073Z" fill="url(#paint2_linear_682_6)" fill-opacity="0.6"/>
<path d="M42.073 24.3956V81.3332H37.5253V24.3956H42.073Z" fill="#6A297D" fill-opacity="0.4"/>
<path d="M52.6636 24.3956V81.3332H48.1159V24.3956H52.6636Z" fill="#D7D7D7"/>
<path d="M52.6636 24.3956V81.3332H48.1159V24.3956H52.6636Z" fill="url(#paint3_linear_682_6)" fill-opacity="0.6"/>
<path d="M52.6636 24.3956V81.3332H48.1159V24.3956H52.6636Z" fill="#6A297D" fill-opacity="0.4"/>
</g>
</g>
<defs>
<filter id="filter0_i_682_6" x="23" y="11.6665" width="44.6329" height="70.9323" filterUnits="userSpaceOnUse" color-interpolation-filters="sRGB">
<feFlood flood-opacity="0" result="BackgroundImageFix"/>
<feBlend mode="normal" in="SourceGraphic" in2="BackgroundImageFix" result="shape"/>
<feColorMatrix in="SourceAlpha" type="matrix" values="0 0 0 0 0 0 0 0 0 0 0 0 0 0 0 0 0 0 127 0" result="hardAlpha"/>
<feOffset dx="0.632922" dy="1.26584"/>
<feGaussianBlur stdDeviation="0.632922"/>
<feComposite in2="hardAlpha" operator="arithmetic" k2="-1" k3="1"/>
<feColorMatrix type="matrix" values="0 0 0 0 1 0 0 0 0 1 0 0 0 0 1 0 0 0 1 0"/>
<feBlend mode="normal" in2="shape" result="effect1_innerShadow_682_6"/>
</filter>
<linearGradient id="paint0_linear_682_6" x1="23" y1="17.6493" x2="52.3652" y2="85.878" gradientUnits="userSpaceOnUse">
<stop stop-color="#D4D4D4"/>
<stop offset="1" stop-color="white"/>
</linearGradient>
<linearGradient id="paint1_linear_682_6" x1="23" y1="17.6493" x2="52.3652" y2="85.878" gradientUnits="userSpaceOnUse">
<stop stop-color="#D4D4D4"/>
<stop offset="1" stop-color="white"/>
</linearGradient>
<linearGradient id="paint2_linear_682_6" x1="23" y1="17.6493" x2="52.3652" y2="85.878" gradientUnits="userSpaceOnUse">
<stop stop-color="#D4D4D4"/>
<stop offset="1" stop-color="white"/>
</linearGradient>
<linearGradient id="paint3_linear_682_6" x1="23" y1="17.6493" x2="52.3652" y2="85.878" gradientUnits="userSpaceOnUse">
<stop stop-color="#D4D4D4"/>
<stop offset="1" stop-color="white"/>
</linearGradient>
<clipPath id="clip0_682_6">
<rect width="90" height="90" fill="white"/>
</clipPath>
</defs>
</svg>
