<svg width="569" height="246" viewBox="0 0 569 246" fill="none" xmlns="http://www.w3.org/2000/svg">
<g filter="url(#filter0_i_666_112)">
<path d="M97 50H191.494V56.4889H97V50Z" fill="#373737"/>
<path d="M97 50H191.494V56.4889H97V50Z" fill="url(#paint0_linear_666_112)" fill-opacity="0.6"/>
<path d="M97 67.0333H191.494V73.5222H97V67.0333Z" fill="#373737"/>
<path d="M97 67.0333H191.494V73.5222H97V67.0333Z" fill="url(#paint1_linear_666_112)" fill-opacity="0.6"/>
<path d="M137.961 73.5222L137.961 194.378H131.472L131.472 73.5222H137.961Z" fill="#373737"/>
<path d="M137.961 73.5222L137.961 194.378H131.472L131.472 73.5222H137.961Z" fill="url(#paint2_linear_666_112)" fill-opacity="0.6"/>
<path d="M157.428 73.5222L157.428 194.378H150.939L150.939 73.5222H157.428Z" fill="#373737"/>
<path d="M157.428 73.5222L157.428 194.378H150.939L150.939 73.5222H157.428Z" fill="url(#paint3_linear_666_112)" fill-opacity="0.6"/>
<path d="M306.672 187.889H376.022V194.378H306.672V187.889Z" fill="#373737"/>
<path d="M306.672 187.889H376.022V194.378H306.672V187.889Z" fill="url(#paint4_linear_666_112)" fill-opacity="0.6"/>
<path d="M306.672 50V194.378H300.184L300.184 50L306.672 50Z" fill="#373737"/>
<path d="M306.672 50V194.378H300.184L300.184 50L306.672 50Z" fill="url(#paint5_linear_666_112)" fill-opacity="0.6"/>
<path d="M404.005 187.889H473.355V194.378H404.005V187.889Z" fill="#373737"/>
<path d="M404.005 187.889H473.355V194.378H404.005V187.889Z" fill="url(#paint6_linear_666_112)" fill-opacity="0.6"/>
<path d="M404.005 50V194.378H397.516L397.516 50L404.005 50Z" fill="#373737"/>
<path d="M404.005 50V194.378H397.516L397.516 50L404.005 50Z" fill="url(#paint7_linear_666_112)" fill-opacity="0.6"/>
<path d="M326.139 170.856H376.023V177.344H326.139V170.856Z" fill="#373737"/>
<path d="M326.139 170.856H376.023V177.344H326.139V170.856Z" fill="url(#paint8_linear_666_112)" fill-opacity="0.6"/>
<path d="M326.139 50V177.344H319.65L319.65 50L326.139 50Z" fill="#373737"/>
<path d="M326.139 50V177.344H319.65L319.65 50L326.139 50Z" fill="url(#paint9_linear_666_112)" fill-opacity="0.6"/>
<path d="M423.471 170.856H473.355V177.344H423.471V170.856Z" fill="#373737"/>
<path d="M423.471 170.856H473.355V177.344H423.471V170.856Z" fill="url(#paint10_linear_666_112)" fill-opacity="0.6"/>
<path d="M423.471 50V177.344H416.982L416.982 50L423.471 50Z" fill="#373737"/>
<path d="M423.471 50V177.344H416.982L416.982 50L423.471 50Z" fill="url(#paint11_linear_666_112)" fill-opacity="0.6"/>
<rect x="211.623" y="75.8057" width="44.1" height="96.8222" rx="22.05" stroke="#373737" stroke-width="7"/>
<rect x="211.623" y="75.8057" width="44.1" height="96.8222" rx="22.05" stroke="url(#paint12_linear_666_112)" stroke-opacity="0.6" stroke-width="7"/>
<rect x="192.156" y="55.9331" width="83.0333" height="136.567" rx="41.5167" stroke="#373737" stroke-width="7"/>
<rect x="192.156" y="55.9331" width="83.0333" height="136.567" rx="41.5167" stroke="url(#paint13_linear_666_112)" stroke-opacity="0.6" stroke-width="7"/>
<circle cx="234.483" cy="123.811" r="7.20556" fill="#373737"/>
<circle cx="234.483" cy="123.811" r="7.20556" fill="url(#paint14_linear_666_112)" fill-opacity="0.6"/>
<circle cx="234.483" cy="123.811" r="7.20556" stroke="#373737"/>
<circle cx="234.483" cy="123.811" r="7.20556" stroke="url(#paint15_linear_666_112)" stroke-opacity="0.6"/>
</g>
<defs>
<filter id="filter0_i_666_112" x="97" y="50" width="377.355" height="148" filterUnits="userSpaceOnUse" color-interpolation-filters="sRGB">
<feFlood flood-opacity="0" result="BackgroundImageFix"/>
<feBlend mode="normal" in="SourceGraphic" in2="BackgroundImageFix" result="shape"/>
<feColorMatrix in="SourceAlpha" type="matrix" values="0 0 0 0 0 0 0 0 0 0 0 0 0 0 0 0 0 0 127 0" result="hardAlpha"/>
<feOffset dx="1" dy="2"/>
<feGaussianBlur stdDeviation="1"/>
<feComposite in2="hardAlpha" operator="arithmetic" k2="-1" k3="1"/>
<feColorMatrix type="matrix" values="0 0 0 0 1 0 0 0 0 1 0 0 0 0 1 0 0 0 1 0"/>
<feBlend mode="normal" in2="shape" result="effect1_innerShadow_666_112"/>
</filter>
<linearGradient id="paint0_linear_666_112" x1="97" y1="58.9222" x2="160.89" y2="206.227" gradientUnits="userSpaceOnUse">
<stop stop-color="#D4D4D4"/>
<stop offset="1"/>
</linearGradient>
<linearGradient id="paint1_linear_666_112" x1="97" y1="58.9222" x2="160.89" y2="206.227" gradientUnits="userSpaceOnUse">
<stop stop-color="#D4D4D4"/>
<stop offset="1"/>
</linearGradient>
<linearGradient id="paint2_linear_666_112" x1="97" y1="58.9222" x2="160.89" y2="206.227" gradientUnits="userSpaceOnUse">
<stop stop-color="#D4D4D4"/>
<stop offset="1"/>
</linearGradient>
<linearGradient id="paint3_linear_666_112" x1="97" y1="58.9222" x2="160.89" y2="206.227" gradientUnits="userSpaceOnUse">
<stop stop-color="#D4D4D4"/>
<stop offset="1"/>
</linearGradient>
<linearGradient id="paint4_linear_666_112" x1="300.184" y1="58.9222" x2="373.386" y2="194.378" gradientUnits="userSpaceOnUse">
<stop stop-color="#D4D4D4"/>
<stop offset="1"/>
</linearGradient>
<linearGradient id="paint5_linear_666_112" x1="300.184" y1="58.9222" x2="373.386" y2="194.378" gradientUnits="userSpaceOnUse">
<stop stop-color="#D4D4D4"/>
<stop offset="1"/>
</linearGradient>
<linearGradient id="paint6_linear_666_112" x1="397.516" y1="58.9222" x2="470.718" y2="194.378" gradientUnits="userSpaceOnUse">
<stop stop-color="#D4D4D4"/>
<stop offset="1"/>
</linearGradient>
<linearGradient id="paint7_linear_666_112" x1="397.516" y1="58.9222" x2="470.718" y2="194.378" gradientUnits="userSpaceOnUse">
<stop stop-color="#D4D4D4"/>
<stop offset="1"/>
</linearGradient>
<linearGradient id="paint8_linear_666_112" x1="319.65" y1="57.8696" x2="389.796" y2="167.256" gradientUnits="userSpaceOnUse">
<stop stop-color="#D4D4D4"/>
<stop offset="1"/>
</linearGradient>
<linearGradient id="paint9_linear_666_112" x1="319.65" y1="57.8696" x2="389.796" y2="167.256" gradientUnits="userSpaceOnUse">
<stop stop-color="#D4D4D4"/>
<stop offset="1"/>
</linearGradient>
<linearGradient id="paint10_linear_666_112" x1="416.982" y1="57.8696" x2="487.128" y2="167.256" gradientUnits="userSpaceOnUse">
<stop stop-color="#D4D4D4"/>
<stop offset="1"/>
</linearGradient>
<linearGradient id="paint11_linear_666_112" x1="416.982" y1="57.8696" x2="487.128" y2="167.256" gradientUnits="userSpaceOnUse">
<stop stop-color="#D4D4D4"/>
<stop offset="1"/>
</linearGradient>
<linearGradient id="paint12_linear_666_112" x1="212.266" y1="78.1713" x2="267.778" y2="158.752" gradientUnits="userSpaceOnUse">
<stop stop-color="#D4D4D4"/>
<stop offset="1"/>
</linearGradient>
<linearGradient id="paint13_linear_666_112" x1="195.956" y1="60.5442" x2="264.698" y2="187.686" gradientUnits="userSpaceOnUse">
<stop stop-color="#D4D4D4"/>
<stop offset="1"/>
</linearGradient>
<linearGradient id="paint14_linear_666_112" x1="226.777" y1="117.058" x2="231.685" y2="134.346" gradientUnits="userSpaceOnUse">
<stop stop-color="#D4D4D4"/>
<stop offset="1"/>
</linearGradient>
<linearGradient id="paint15_linear_666_112" x1="228.027" y1="116.976" x2="233.391" y2="132.795" gradientUnits="userSpaceOnUse">
<stop/>
<stop offset="1" stop-color="white"/>
</linearGradient>
</defs>
</svg>
