<svg width="203" height="87" viewBox="0 0 203 87" fill="none" xmlns="http://www.w3.org/2000/svg">
<g filter="url(#filter0_i_666_112)">
<path d="M26.584 14.5571H63.0774V18.329H26.584V14.5571Z" fill="#373737"/>
<path d="M26.584 14.5571H63.0774V18.329H26.584V14.5571Z" fill="url(#paint0_linear_666_112)" fill-opacity="0.6"/>
<path d="M26.584 14.5571H63.0774V18.329H26.584V14.5571Z" fill="#6A297D" fill-opacity="0.4"/>
<path d="M26.584 21.4245H63.0774V25.1963H26.584V21.4245Z" fill="#373737"/>
<path d="M26.584 21.4245H63.0774V25.1963H26.584V21.4245Z" fill="url(#paint1_linear_666_112)" fill-opacity="0.6"/>
<path d="M26.584 21.4245H63.0774V25.1963H26.584V21.4245Z" fill="#6A297D" fill-opacity="0.4"/>
<path d="M42.403 25.1963V72.7859H38.6312V25.1963H42.403Z" fill="#373737"/>
<path d="M42.403 25.1963V72.7859H38.6312V25.1963H42.403Z" fill="url(#paint2_linear_666_112)" fill-opacity="0.6"/>
<path d="M42.403 25.1963V72.7859H38.6312V25.1963H42.403Z" fill="#6A297D" fill-opacity="0.4"/>
<path d="M51.1868 25.1963V72.7859H47.415V25.1963H51.1868Z" fill="#373737"/>
<path d="M51.1868 25.1963V72.7859H47.415V25.1963H51.1868Z" fill="url(#paint3_linear_666_112)" fill-opacity="0.6"/>
<path d="M51.1868 25.1963V72.7859H47.415V25.1963H51.1868Z" fill="#6A297D" fill-opacity="0.4"/>
<path d="M114.522 69.0752H140.672V72.847H114.522V69.0752Z" fill="#373737"/>
<path d="M114.522 69.0752H140.672V72.847H114.522V69.0752Z" fill="url(#paint4_linear_666_112)" fill-opacity="0.6"/>
<path d="M114.522 69.0752H140.672V72.847H114.522V69.0752Z" fill="#6A297D" fill-opacity="0.4"/>
<path d="M114.522 14.5571V72.847H110.75L110.75 14.5571L114.522 14.5571Z" fill="#373737"/>
<path d="M114.522 14.5571V72.847H110.75L110.75 14.5571L114.522 14.5571Z" fill="url(#paint5_linear_666_112)" fill-opacity="0.6"/>
<path d="M114.522 14.5571V72.847H110.75L110.75 14.5571L114.522 14.5571Z" fill="#6A297D" fill-opacity="0.4"/>
<path d="M149.752 69.0752H175.902V72.847H149.752V69.0752Z" fill="#373737"/>
<path d="M149.752 69.0752H175.902V72.847H149.752V69.0752Z" fill="url(#paint6_linear_666_112)" fill-opacity="0.6"/>
<path d="M149.752 69.0752H175.902V72.847H149.752V69.0752Z" fill="#6A297D" fill-opacity="0.4"/>
<path d="M149.752 14.5571V72.847H145.98L145.98 14.5571L149.752 14.5571Z" fill="#373737"/>
<path d="M149.752 14.5571V72.847H145.98L145.98 14.5571L149.752 14.5571Z" fill="url(#paint7_linear_666_112)" fill-opacity="0.6"/>
<path d="M149.752 14.5571V72.847H145.98L145.98 14.5571L149.752 14.5571Z" fill="#6A297D" fill-opacity="0.4"/>
<path d="M121.407 62.7862H140.671V66.558H121.407V62.7862Z" fill="#373737"/>
<path d="M121.407 62.7862H140.671V66.558H121.407V62.7862Z" fill="url(#paint8_linear_666_112)" fill-opacity="0.6"/>
<path d="M121.407 62.7862H140.671V66.558H121.407V62.7862Z" fill="#6A297D" fill-opacity="0.4"/>
<path d="M121.407 14.5571V66.558H117.635L117.635 14.5571L121.407 14.5571Z" fill="#373737"/>
<path d="M121.407 14.5571V66.558H117.635L117.635 14.5571L121.407 14.5571Z" fill="url(#paint9_linear_666_112)" fill-opacity="0.6"/>
<path d="M121.407 14.5571V66.558H117.635L117.635 14.5571L121.407 14.5571Z" fill="#6A297D" fill-opacity="0.4"/>
<path d="M156.639 62.7862H175.904V66.558H156.639V62.7862Z" fill="#373737"/>
<path d="M156.639 62.7862H175.904V66.558H156.639V62.7862Z" fill="url(#paint10_linear_666_112)" fill-opacity="0.6"/>
<path d="M156.639 62.7862H175.904V66.558H156.639V62.7862Z" fill="#6A297D" fill-opacity="0.4"/>
<path d="M156.639 14.5571V66.558H152.867L152.867 14.5571L156.639 14.5571Z" fill="#373737"/>
<path d="M156.639 14.5571V66.558H152.867L152.867 14.5571L156.639 14.5571Z" fill="url(#paint11_linear_666_112)" fill-opacity="0.6"/>
<path d="M156.639 14.5571V66.558H152.867L152.867 14.5571L156.639 14.5571Z" fill="#6A297D" fill-opacity="0.4"/>
<rect x="77.6253" y="24.6839" width="15.8231" height="37.9753" rx="7.91153" stroke="#373737" stroke-width="3.79753"/>
<rect x="77.6253" y="24.6839" width="15.8231" height="37.9753" rx="7.91153" stroke="url(#paint12_linear_666_112)" stroke-opacity="0.6" stroke-width="3.79753"/>
<rect x="77.6253" y="24.6839" width="15.8231" height="37.9753" rx="7.91153" stroke="#6A297D" stroke-opacity="0.4" stroke-width="3.79753"/>
<rect x="70.0316" y="16.4559" width="31.0132" height="54.4313" rx="15.5066" stroke="#373737" stroke-width="3.79753"/>
<rect x="70.0316" y="16.4559" width="31.0132" height="54.4313" rx="15.5066" stroke="url(#paint13_linear_666_112)" stroke-opacity="0.6" stroke-width="3.79753"/>
<rect x="70.0316" y="16.4559" width="31.0132" height="54.4313" rx="15.5066" stroke="#6A297D" stroke-opacity="0.4" stroke-width="3.79753"/>
<circle cx="85.5376" cy="43.9878" r="2.53169" fill="#373737"/>
<circle cx="85.5376" cy="43.9878" r="2.53169" fill="url(#paint14_linear_666_112)" fill-opacity="0.6"/>
<circle cx="85.5376" cy="43.9878" r="2.53169" fill="#6A297D" fill-opacity="0.4"/>
<circle cx="85.5376" cy="43.9878" r="2.53169" stroke="#373737" stroke-width="0.632922"/>
<circle cx="85.5376" cy="43.9878" r="2.53169" stroke="url(#paint15_linear_666_112)" stroke-opacity="0.6" stroke-width="0.632922"/>
<circle cx="85.5376" cy="43.9878" r="2.53169" stroke="#6A297D" stroke-opacity="0.4" stroke-width="0.632922"/>
</g>
<defs>
<filter id="filter0_i_666_112" x="26.584" y="14.5571" width="149.953" height="59.5559" filterUnits="userSpaceOnUse" color-interpolation-filters="sRGB">
<feFlood flood-opacity="0" result="BackgroundImageFix"/>
<feBlend mode="normal" in="SourceGraphic" in2="BackgroundImageFix" result="shape"/>
<feColorMatrix in="SourceAlpha" type="matrix" values="0 0 0 0 0 0 0 0 0 0 0 0 0 0 0 0 0 0 127 0" result="hardAlpha"/>
<feOffset dx="0.632922" dy="1.26584"/>
<feGaussianBlur stdDeviation="0.632922"/>
<feComposite in2="hardAlpha" operator="arithmetic" k2="-1" k3="1"/>
<feColorMatrix type="matrix" values="0 0 0 0 1 0 0 0 0 1 0 0 0 0 1 0 0 0 1 0"/>
<feBlend mode="normal" in2="shape" result="effect1_innerShadow_666_112"/>
</filter>
<linearGradient id="paint0_linear_666_112" x1="26.584" y1="19.5577" x2="51.2581" y2="76.4463" gradientUnits="userSpaceOnUse">
<stop stop-color="#D4D4D4"/>
<stop offset="1"/>
</linearGradient>
<linearGradient id="paint1_linear_666_112" x1="26.584" y1="19.5577" x2="51.2581" y2="76.4463" gradientUnits="userSpaceOnUse">
<stop stop-color="#D4D4D4"/>
<stop offset="1"/>
</linearGradient>
<linearGradient id="paint2_linear_666_112" x1="26.584" y1="19.5577" x2="51.2581" y2="76.4463" gradientUnits="userSpaceOnUse">
<stop stop-color="#D4D4D4"/>
<stop offset="1"/>
</linearGradient>
<linearGradient id="paint3_linear_666_112" x1="26.584" y1="19.5577" x2="51.2581" y2="76.4463" gradientUnits="userSpaceOnUse">
<stop stop-color="#D4D4D4"/>
<stop offset="1"/>
</linearGradient>
<linearGradient id="paint4_linear_666_112" x1="110.75" y1="18.455" x2="140.674" y2="72.5663" gradientUnits="userSpaceOnUse">
<stop stop-color="#D4D4D4"/>
<stop offset="1"/>
</linearGradient>
<linearGradient id="paint5_linear_666_112" x1="110.75" y1="18.455" x2="140.674" y2="72.5663" gradientUnits="userSpaceOnUse">
<stop stop-color="#D4D4D4"/>
<stop offset="1"/>
</linearGradient>
<linearGradient id="paint6_linear_666_112" x1="145.98" y1="18.455" x2="175.904" y2="72.5663" gradientUnits="userSpaceOnUse">
<stop stop-color="#D4D4D4"/>
<stop offset="1"/>
</linearGradient>
<linearGradient id="paint7_linear_666_112" x1="145.98" y1="18.455" x2="175.904" y2="72.5663" gradientUnits="userSpaceOnUse">
<stop stop-color="#D4D4D4"/>
<stop offset="1"/>
</linearGradient>
<linearGradient id="paint8_linear_666_112" x1="118.901" y1="19.1514" x2="145.991" y2="61.3959" gradientUnits="userSpaceOnUse">
<stop stop-color="#D4D4D4"/>
<stop offset="1"/>
</linearGradient>
<linearGradient id="paint9_linear_666_112" x1="118.901" y1="19.1514" x2="145.991" y2="61.3959" gradientUnits="userSpaceOnUse">
<stop stop-color="#D4D4D4"/>
<stop offset="1"/>
</linearGradient>
<linearGradient id="paint10_linear_666_112" x1="154.133" y1="19.1514" x2="181.223" y2="61.3959" gradientUnits="userSpaceOnUse">
<stop stop-color="#D4D4D4"/>
<stop offset="1"/>
</linearGradient>
<linearGradient id="paint11_linear_666_112" x1="154.133" y1="19.1514" x2="181.223" y2="61.3959" gradientUnits="userSpaceOnUse">
<stop stop-color="#D4D4D4"/>
<stop offset="1"/>
</linearGradient>
<linearGradient id="paint12_linear_666_112" x1="77.3174" y1="25.1452" x2="100.006" y2="56.5749" gradientUnits="userSpaceOnUse">
<stop stop-color="#D4D4D4"/>
<stop offset="1"/>
</linearGradient>
<linearGradient id="paint13_linear_666_112" x1="70.9553" y1="17.8469" x2="99.5527" y2="68.2689" gradientUnits="userSpaceOnUse">
<stop stop-color="#D4D4D4"/>
<stop offset="1"/>
</linearGradient>
<linearGradient id="paint14_linear_666_112" x1="82.6895" y1="41.4917" x2="84.5034" y2="47.8818" gradientUnits="userSpaceOnUse">
<stop stop-color="#D4D4D4"/>
<stop offset="1"/>
</linearGradient>
<linearGradient id="paint15_linear_666_112" x1="83.1513" y1="41.4615" x2="85.1338" y2="47.3085" gradientUnits="userSpaceOnUse">
<stop/>
<stop offset="1" stop-color="white"/>
</linearGradient>
</defs>
</svg>
