<svg width="948" height="511" viewBox="0 0 948 511" fill="none" xmlns="http://www.w3.org/2000/svg">
<g filter="url(#filter0_i_664_74)">
<g filter="url(#filter1_d_664_74)">
<path d="M12 6H245V22H12V6Z" fill="#373737"/>
<path d="M12 6H245V22H12V6Z" fill="url(#paint0_linear_664_74)" fill-opacity="0.6"/>
<path d="M12 48H245V64H12V48Z" fill="#373737"/>
<path d="M12 48H245V64H12V48Z" fill="url(#paint1_linear_664_74)" fill-opacity="0.6"/>
<path d="M113 64L113 362H97L97 64H113Z" fill="#373737"/>
<path d="M113 64L113 362H97L97 64H113Z" fill="url(#paint2_linear_664_74)" fill-opacity="0.6"/>
<path d="M161 64L161 362H145L145 64H161Z" fill="#373737"/>
<path d="M161 64L161 362H145L145 64H161Z" fill="url(#paint3_linear_664_74)" fill-opacity="0.6"/>
</g>
<g filter="url(#filter2_d_664_74)">
<path d="M529 346H700V362H529V346Z" fill="#373737"/>
<path d="M529 346H700V362H529V346Z" fill="url(#paint4_linear_664_74)" fill-opacity="0.6"/>
<path d="M529 6V362H513L513 6L529 6Z" fill="#373737"/>
<path d="M529 6V362H513L513 6L529 6Z" fill="url(#paint5_linear_664_74)" fill-opacity="0.6"/>
</g>
<g filter="url(#filter3_d_664_74)">
<path d="M769 346H940V362H769V346Z" fill="#373737"/>
<path d="M769 346H940V362H769V346Z" fill="url(#paint6_linear_664_74)" fill-opacity="0.6"/>
<path d="M769 6V362H753L753 6L769 6Z" fill="#373737"/>
<path d="M769 6V362H753L753 6L769 6Z" fill="url(#paint7_linear_664_74)" fill-opacity="0.6"/>
</g>
<g filter="url(#filter4_d_664_74)">
<path d="M577 304H700V320H577V304Z" fill="#373737"/>
<path d="M577 304H700V320H577V304Z" fill="url(#paint8_linear_664_74)" fill-opacity="0.6"/>
<path d="M577 6V320H561L561 6L577 6Z" fill="#373737"/>
<path d="M577 6V320H561L561 6L577 6Z" fill="url(#paint9_linear_664_74)" fill-opacity="0.6"/>
</g>
<g filter="url(#filter5_d_664_74)">
<path d="M817 304H940V320H817V304Z" fill="#373737"/>
<path d="M817 304H940V320H817V304Z" fill="url(#paint10_linear_664_74)" fill-opacity="0.6"/>
<path d="M817 6V320H801L801 6L817 6Z" fill="#373737"/>
<path d="M817 6V320H801L801 6L817 6Z" fill="url(#paint11_linear_664_74)" fill-opacity="0.6"/>
</g>
<g filter="url(#filter6_d_664_74)">
<rect x="294" y="69" width="110" height="240" rx="55" stroke="#373737" stroke-width="16" shape-rendering="crispEdges"/>
<rect x="294" y="69" width="110" height="240" rx="55" stroke="url(#paint12_linear_664_74)" stroke-opacity="0.6" stroke-width="16" shape-rendering="crispEdges"/>
</g>
<g filter="url(#filter7_d_664_74)">
<rect x="246" y="20" width="206" height="338" rx="103" stroke="#373737" stroke-width="16" shape-rendering="crispEdges"/>
<rect x="246" y="20" width="206" height="338" rx="103" stroke="url(#paint13_linear_664_74)" stroke-opacity="0.6" stroke-width="16" shape-rendering="crispEdges"/>
</g>
<g filter="url(#filter8_d_664_74)">
<circle cx="351" cy="188" r="19" fill="#373737"/>
<circle cx="351" cy="188" r="19" fill="url(#paint14_linear_664_74)" fill-opacity="0.6"/>
<circle cx="351" cy="188" r="18.5" stroke="#373737"/>
<circle cx="351" cy="188" r="18.5" stroke="url(#paint15_linear_664_74)" stroke-opacity="0.6"/>
</g>
</g>
<g filter="url(#filter9_d_664_74)">
<mask id="path-10-outside-1_664_74" maskUnits="userSpaceOnUse" x="112" y="441" width="728" height="49" fill="black">
<rect fill="white" x="112" y="441" width="728" height="49"/>
<path d="M112.632 442.688H118.008V483.008H138.744V488H112.632V442.688ZM152.312 442.688H180.792V447.68H157.688V461.888H179.256V466.88H157.688V483.008H181.944V488H152.312V442.688ZM236.458 484.928C233.855 486.379 231.103 487.445 228.202 488.128C225.343 488.811 222.442 489.152 219.498 489.152C215.956 489.152 212.714 488.576 209.77 487.424C206.826 486.272 204.266 484.651 202.09 482.56C199.956 480.469 198.292 477.973 197.098 475.072C195.903 472.128 195.306 468.885 195.306 465.344C195.306 461.76 195.924 458.517 197.162 455.616C198.442 452.672 200.191 450.176 202.41 448.128C204.628 446.037 207.21 444.416 210.154 443.264C213.098 442.112 216.276 441.536 219.69 441.536C222.676 441.536 225.535 441.984 228.266 442.88C231.039 443.776 233.514 445.312 235.69 447.488L231.658 451.712C230.122 450.048 228.244 448.768 226.026 447.872C223.85 446.976 221.61 446.528 219.306 446.528C216.703 446.528 214.292 446.997 212.074 447.936C209.855 448.875 207.914 450.176 206.25 451.84C204.628 453.504 203.348 455.488 202.41 457.792C201.514 460.096 201.066 462.613 201.066 465.344C201.066 468.032 201.514 470.528 202.41 472.832C203.348 475.136 204.628 477.141 206.25 478.848C207.914 480.512 209.898 481.813 212.202 482.752C214.506 483.691 217.044 484.16 219.818 484.16C221.652 484.16 223.572 483.947 225.578 483.52C227.583 483.051 229.418 482.389 231.082 481.536V467.648H220.65V462.656H236.458V484.928ZM270.142 442.688H275.198L294.462 488H288.19L283.582 476.864H260.926L256.254 488H250.174L270.142 442.688ZM272.574 449.6H272.446L263.038 471.872H281.534L272.574 449.6ZM308.165 442.688H313.541V483.008H334.277V488H308.165V442.688ZM405.081 452.032C403.716 450.197 402.03 448.832 400.025 447.936C398.02 446.997 395.929 446.528 393.753 446.528C391.236 446.528 388.91 447.04 386.777 448.064C384.686 449.088 382.873 450.475 381.337 452.224C379.801 453.931 378.606 455.936 377.753 458.24C376.9 460.501 376.473 462.869 376.473 465.344C376.473 467.989 376.9 470.464 377.753 472.768C378.606 475.029 379.78 477.013 381.273 478.72C382.809 480.384 384.622 481.707 386.713 482.688C388.846 483.669 391.193 484.16 393.753 484.16C396.526 484.16 399.001 483.627 401.177 482.56C403.353 481.451 405.252 479.872 406.873 477.824L410.905 481.216C408.857 483.947 406.382 485.952 403.481 487.232C400.622 488.512 397.38 489.152 393.753 489.152C390.51 489.152 387.481 488.555 384.665 487.36C381.849 486.165 379.396 484.523 377.305 482.432C375.257 480.299 373.636 477.781 372.441 474.88C371.289 471.979 370.713 468.8 370.713 465.344C370.713 462.016 371.268 458.901 372.377 456C373.529 453.099 375.129 450.581 377.177 448.448C379.225 446.315 381.657 444.629 384.473 443.392C387.289 442.155 390.382 441.536 393.753 441.536C396.825 441.536 399.769 442.091 402.585 443.2C405.444 444.309 407.833 446.123 409.753 448.64L405.081 452.032ZM447.136 489.152C443.68 489.152 440.501 488.555 437.6 487.36C434.741 486.165 432.245 484.523 430.112 482.432C428.021 480.299 426.378 477.781 425.184 474.88C424.032 471.936 423.456 468.757 423.456 465.344C423.456 461.931 424.032 458.773 425.184 455.872C426.378 452.928 428.021 450.411 430.112 448.32C432.245 446.187 434.741 444.523 437.6 443.328C440.501 442.133 443.68 441.536 447.136 441.536C450.592 441.536 453.749 442.133 456.608 443.328C459.509 444.523 462.005 446.187 464.096 448.32C466.229 450.411 467.872 452.928 469.024 455.872C470.218 458.773 470.816 461.931 470.816 465.344C470.816 468.757 470.218 471.936 469.024 474.88C467.872 477.781 466.229 480.299 464.096 482.432C462.005 484.523 459.509 486.165 456.608 487.36C453.749 488.555 450.592 489.152 447.136 489.152ZM447.136 484.16C449.781 484.16 452.192 483.669 454.368 482.688C456.586 481.707 458.485 480.363 460.064 478.656C461.642 476.949 462.858 474.965 463.712 472.704C464.608 470.4 465.056 467.947 465.056 465.344C465.056 462.741 464.608 460.309 463.712 458.048C462.858 455.744 461.642 453.739 460.064 452.032C458.485 450.325 456.586 448.981 454.368 448C452.192 447.019 449.781 446.528 447.136 446.528C444.49 446.528 442.058 447.019 439.84 448C437.664 448.981 435.786 450.325 434.208 452.032C432.629 453.739 431.392 455.744 430.496 458.048C429.642 460.309 429.216 462.741 429.216 465.344C429.216 467.947 429.642 470.4 430.496 472.704C431.392 474.965 432.629 476.949 434.208 478.656C435.786 480.363 437.664 481.707 439.84 482.688C442.058 483.669 444.49 484.16 447.136 484.16ZM487.135 442.688H493.919L520.159 480.32H520.287V442.688H525.663V488H518.879L492.639 450.368H492.511V488H487.135V442.688ZM566.131 450.688C565.235 449.237 564.04 448.192 562.547 447.552C561.054 446.869 559.496 446.528 557.875 446.528C556.68 446.528 555.507 446.677 554.355 446.976C553.203 447.275 552.158 447.723 551.219 448.32C550.323 448.917 549.598 449.707 549.043 450.688C548.488 451.669 548.211 452.821 548.211 454.144C548.211 455.168 548.36 456.085 548.659 456.896C549 457.664 549.534 458.368 550.259 459.008C550.984 459.648 551.966 460.245 553.203 460.8C554.44 461.355 555.955 461.909 557.747 462.464C559.496 463.019 561.182 463.616 562.803 464.256C564.467 464.896 565.918 465.707 567.155 466.688C568.435 467.669 569.438 468.907 570.163 470.4C570.931 471.851 571.315 473.685 571.315 475.904C571.315 478.165 570.867 480.128 569.971 481.792C569.075 483.456 567.88 484.843 566.387 485.952C564.936 487.019 563.251 487.808 561.331 488.32C559.411 488.875 557.427 489.152 555.379 489.152C554.056 489.152 552.734 489.024 551.411 488.768C550.088 488.555 548.808 488.213 547.571 487.744C546.376 487.232 545.246 486.592 544.179 485.824C543.112 485.013 542.195 484.032 541.427 482.88L546.035 479.104C547.016 480.768 548.382 482.027 550.131 482.88C551.88 483.733 553.736 484.16 555.699 484.16C556.851 484.16 558.003 483.989 559.155 483.648C560.35 483.307 561.416 482.816 562.355 482.176C563.294 481.493 564.062 480.661 564.659 479.68C565.256 478.699 565.555 477.568 565.555 476.288C565.555 474.88 565.32 473.749 564.851 472.896C564.382 472 563.656 471.232 562.675 470.592C561.694 469.952 560.456 469.376 558.963 468.864C557.47 468.352 555.72 467.755 553.715 467.072C552.094 466.56 550.6 465.984 549.235 465.344C547.87 464.661 546.675 463.851 545.651 462.912C544.67 461.931 543.88 460.779 543.283 459.456C542.728 458.091 542.451 456.469 542.451 454.592C542.451 452.416 542.878 450.517 543.731 448.896C544.584 447.275 545.736 445.931 547.187 444.864C548.638 443.755 550.28 442.923 552.115 442.368C553.95 441.813 555.87 441.536 557.875 441.536C560.435 441.536 562.76 441.941 564.851 442.752C566.984 443.52 568.883 444.885 570.547 446.848L566.131 450.688ZM621.853 470.72C621.853 473.195 621.533 475.541 620.893 477.76C620.296 479.979 619.315 481.941 617.949 483.648C616.627 485.312 614.877 486.656 612.701 487.68C610.525 488.661 607.88 489.152 604.765 489.152C601.651 489.152 599.005 488.661 596.829 487.68C594.653 486.656 592.883 485.312 591.517 483.648C590.195 481.941 589.213 479.979 588.573 477.76C587.976 475.541 587.677 473.195 587.677 470.72V442.688H593.053V469.952C593.053 471.787 593.245 473.557 593.629 475.264C594.013 476.971 594.653 478.485 595.549 479.808C596.445 481.131 597.64 482.197 599.133 483.008C600.627 483.776 602.504 484.16 604.765 484.16C607.027 484.16 608.904 483.776 610.397 483.008C611.891 482.197 613.085 481.131 613.981 479.808C614.877 478.485 615.517 476.971 615.901 475.264C616.285 473.557 616.477 471.787 616.477 469.952V442.688H621.853V470.72ZM640.612 442.688H645.988V483.008H666.724V488H640.612V442.688ZM704.817 447.68H689.841V488H684.465V447.68H669.489V442.688H704.817V447.68ZM718.847 442.688H724.223V488H718.847V442.688ZM743.152 442.688H749.936L776.176 480.32H776.304V442.688H781.68V488H774.896L748.656 450.368H748.528V488H743.152V442.688ZM839.173 484.928C836.57 486.379 833.818 487.445 830.917 488.128C828.058 488.811 825.157 489.152 822.213 489.152C818.671 489.152 815.429 488.576 812.485 487.424C809.541 486.272 806.981 484.651 804.805 482.56C802.671 480.469 801.007 477.973 799.813 475.072C798.618 472.128 798.021 468.885 798.021 465.344C798.021 461.76 798.639 458.517 799.877 455.616C801.157 452.672 802.906 450.176 805.125 448.128C807.343 446.037 809.925 444.416 812.869 443.264C815.813 442.112 818.991 441.536 822.405 441.536C825.391 441.536 828.25 441.984 830.981 442.88C833.754 443.776 836.229 445.312 838.405 447.488L834.373 451.712C832.837 450.048 830.959 448.768 828.741 447.872C826.565 446.976 824.325 446.528 822.021 446.528C819.418 446.528 817.007 446.997 814.789 447.936C812.57 448.875 810.629 450.176 808.965 451.84C807.343 453.504 806.063 455.488 805.125 457.792C804.229 460.096 803.781 462.613 803.781 465.344C803.781 468.032 804.229 470.528 805.125 472.832C806.063 475.136 807.343 477.141 808.965 478.848C810.629 480.512 812.613 481.813 814.917 482.752C817.221 483.691 819.759 484.16 822.533 484.16C824.367 484.16 826.287 483.947 828.293 483.52C830.298 483.051 832.133 482.389 833.797 481.536V467.648H823.365V462.656H839.173V484.928Z"/>
</mask>
<path d="M112.632 442.688H118.008V483.008H138.744V488H112.632V442.688ZM152.312 442.688H180.792V447.68H157.688V461.888H179.256V466.88H157.688V483.008H181.944V488H152.312V442.688ZM236.458 484.928C233.855 486.379 231.103 487.445 228.202 488.128C225.343 488.811 222.442 489.152 219.498 489.152C215.956 489.152 212.714 488.576 209.77 487.424C206.826 486.272 204.266 484.651 202.09 482.56C199.956 480.469 198.292 477.973 197.098 475.072C195.903 472.128 195.306 468.885 195.306 465.344C195.306 461.76 195.924 458.517 197.162 455.616C198.442 452.672 200.191 450.176 202.41 448.128C204.628 446.037 207.21 444.416 210.154 443.264C213.098 442.112 216.276 441.536 219.69 441.536C222.676 441.536 225.535 441.984 228.266 442.88C231.039 443.776 233.514 445.312 235.69 447.488L231.658 451.712C230.122 450.048 228.244 448.768 226.026 447.872C223.85 446.976 221.61 446.528 219.306 446.528C216.703 446.528 214.292 446.997 212.074 447.936C209.855 448.875 207.914 450.176 206.25 451.84C204.628 453.504 203.348 455.488 202.41 457.792C201.514 460.096 201.066 462.613 201.066 465.344C201.066 468.032 201.514 470.528 202.41 472.832C203.348 475.136 204.628 477.141 206.25 478.848C207.914 480.512 209.898 481.813 212.202 482.752C214.506 483.691 217.044 484.16 219.818 484.16C221.652 484.16 223.572 483.947 225.578 483.52C227.583 483.051 229.418 482.389 231.082 481.536V467.648H220.65V462.656H236.458V484.928ZM270.142 442.688H275.198L294.462 488H288.19L283.582 476.864H260.926L256.254 488H250.174L270.142 442.688ZM272.574 449.6H272.446L263.038 471.872H281.534L272.574 449.6ZM308.165 442.688H313.541V483.008H334.277V488H308.165V442.688ZM405.081 452.032C403.716 450.197 402.03 448.832 400.025 447.936C398.02 446.997 395.929 446.528 393.753 446.528C391.236 446.528 388.91 447.04 386.777 448.064C384.686 449.088 382.873 450.475 381.337 452.224C379.801 453.931 378.606 455.936 377.753 458.24C376.9 460.501 376.473 462.869 376.473 465.344C376.473 467.989 376.9 470.464 377.753 472.768C378.606 475.029 379.78 477.013 381.273 478.72C382.809 480.384 384.622 481.707 386.713 482.688C388.846 483.669 391.193 484.16 393.753 484.16C396.526 484.16 399.001 483.627 401.177 482.56C403.353 481.451 405.252 479.872 406.873 477.824L410.905 481.216C408.857 483.947 406.382 485.952 403.481 487.232C400.622 488.512 397.38 489.152 393.753 489.152C390.51 489.152 387.481 488.555 384.665 487.36C381.849 486.165 379.396 484.523 377.305 482.432C375.257 480.299 373.636 477.781 372.441 474.88C371.289 471.979 370.713 468.8 370.713 465.344C370.713 462.016 371.268 458.901 372.377 456C373.529 453.099 375.129 450.581 377.177 448.448C379.225 446.315 381.657 444.629 384.473 443.392C387.289 442.155 390.382 441.536 393.753 441.536C396.825 441.536 399.769 442.091 402.585 443.2C405.444 444.309 407.833 446.123 409.753 448.64L405.081 452.032ZM447.136 489.152C443.68 489.152 440.501 488.555 437.6 487.36C434.741 486.165 432.245 484.523 430.112 482.432C428.021 480.299 426.378 477.781 425.184 474.88C424.032 471.936 423.456 468.757 423.456 465.344C423.456 461.931 424.032 458.773 425.184 455.872C426.378 452.928 428.021 450.411 430.112 448.32C432.245 446.187 434.741 444.523 437.6 443.328C440.501 442.133 443.68 441.536 447.136 441.536C450.592 441.536 453.749 442.133 456.608 443.328C459.509 444.523 462.005 446.187 464.096 448.32C466.229 450.411 467.872 452.928 469.024 455.872C470.218 458.773 470.816 461.931 470.816 465.344C470.816 468.757 470.218 471.936 469.024 474.88C467.872 477.781 466.229 480.299 464.096 482.432C462.005 484.523 459.509 486.165 456.608 487.36C453.749 488.555 450.592 489.152 447.136 489.152ZM447.136 484.16C449.781 484.16 452.192 483.669 454.368 482.688C456.586 481.707 458.485 480.363 460.064 478.656C461.642 476.949 462.858 474.965 463.712 472.704C464.608 470.4 465.056 467.947 465.056 465.344C465.056 462.741 464.608 460.309 463.712 458.048C462.858 455.744 461.642 453.739 460.064 452.032C458.485 450.325 456.586 448.981 454.368 448C452.192 447.019 449.781 446.528 447.136 446.528C444.49 446.528 442.058 447.019 439.84 448C437.664 448.981 435.786 450.325 434.208 452.032C432.629 453.739 431.392 455.744 430.496 458.048C429.642 460.309 429.216 462.741 429.216 465.344C429.216 467.947 429.642 470.4 430.496 472.704C431.392 474.965 432.629 476.949 434.208 478.656C435.786 480.363 437.664 481.707 439.84 482.688C442.058 483.669 444.49 484.16 447.136 484.16ZM487.135 442.688H493.919L520.159 480.32H520.287V442.688H525.663V488H518.879L492.639 450.368H492.511V488H487.135V442.688ZM566.131 450.688C565.235 449.237 564.04 448.192 562.547 447.552C561.054 446.869 559.496 446.528 557.875 446.528C556.68 446.528 555.507 446.677 554.355 446.976C553.203 447.275 552.158 447.723 551.219 448.32C550.323 448.917 549.598 449.707 549.043 450.688C548.488 451.669 548.211 452.821 548.211 454.144C548.211 455.168 548.36 456.085 548.659 456.896C549 457.664 549.534 458.368 550.259 459.008C550.984 459.648 551.966 460.245 553.203 460.8C554.44 461.355 555.955 461.909 557.747 462.464C559.496 463.019 561.182 463.616 562.803 464.256C564.467 464.896 565.918 465.707 567.155 466.688C568.435 467.669 569.438 468.907 570.163 470.4C570.931 471.851 571.315 473.685 571.315 475.904C571.315 478.165 570.867 480.128 569.971 481.792C569.075 483.456 567.88 484.843 566.387 485.952C564.936 487.019 563.251 487.808 561.331 488.32C559.411 488.875 557.427 489.152 555.379 489.152C554.056 489.152 552.734 489.024 551.411 488.768C550.088 488.555 548.808 488.213 547.571 487.744C546.376 487.232 545.246 486.592 544.179 485.824C543.112 485.013 542.195 484.032 541.427 482.88L546.035 479.104C547.016 480.768 548.382 482.027 550.131 482.88C551.88 483.733 553.736 484.16 555.699 484.16C556.851 484.16 558.003 483.989 559.155 483.648C560.35 483.307 561.416 482.816 562.355 482.176C563.294 481.493 564.062 480.661 564.659 479.68C565.256 478.699 565.555 477.568 565.555 476.288C565.555 474.88 565.32 473.749 564.851 472.896C564.382 472 563.656 471.232 562.675 470.592C561.694 469.952 560.456 469.376 558.963 468.864C557.47 468.352 555.72 467.755 553.715 467.072C552.094 466.56 550.6 465.984 549.235 465.344C547.87 464.661 546.675 463.851 545.651 462.912C544.67 461.931 543.88 460.779 543.283 459.456C542.728 458.091 542.451 456.469 542.451 454.592C542.451 452.416 542.878 450.517 543.731 448.896C544.584 447.275 545.736 445.931 547.187 444.864C548.638 443.755 550.28 442.923 552.115 442.368C553.95 441.813 555.87 441.536 557.875 441.536C560.435 441.536 562.76 441.941 564.851 442.752C566.984 443.52 568.883 444.885 570.547 446.848L566.131 450.688ZM621.853 470.72C621.853 473.195 621.533 475.541 620.893 477.76C620.296 479.979 619.315 481.941 617.949 483.648C616.627 485.312 614.877 486.656 612.701 487.68C610.525 488.661 607.88 489.152 604.765 489.152C601.651 489.152 599.005 488.661 596.829 487.68C594.653 486.656 592.883 485.312 591.517 483.648C590.195 481.941 589.213 479.979 588.573 477.76C587.976 475.541 587.677 473.195 587.677 470.72V442.688H593.053V469.952C593.053 471.787 593.245 473.557 593.629 475.264C594.013 476.971 594.653 478.485 595.549 479.808C596.445 481.131 597.64 482.197 599.133 483.008C600.627 483.776 602.504 484.16 604.765 484.16C607.027 484.16 608.904 483.776 610.397 483.008C611.891 482.197 613.085 481.131 613.981 479.808C614.877 478.485 615.517 476.971 615.901 475.264C616.285 473.557 616.477 471.787 616.477 469.952V442.688H621.853V470.72ZM640.612 442.688H645.988V483.008H666.724V488H640.612V442.688ZM704.817 447.68H689.841V488H684.465V447.68H669.489V442.688H704.817V447.68ZM718.847 442.688H724.223V488H718.847V442.688ZM743.152 442.688H749.936L776.176 480.32H776.304V442.688H781.68V488H774.896L748.656 450.368H748.528V488H743.152V442.688ZM839.173 484.928C836.57 486.379 833.818 487.445 830.917 488.128C828.058 488.811 825.157 489.152 822.213 489.152C818.671 489.152 815.429 488.576 812.485 487.424C809.541 486.272 806.981 484.651 804.805 482.56C802.671 480.469 801.007 477.973 799.813 475.072C798.618 472.128 798.021 468.885 798.021 465.344C798.021 461.76 798.639 458.517 799.877 455.616C801.157 452.672 802.906 450.176 805.125 448.128C807.343 446.037 809.925 444.416 812.869 443.264C815.813 442.112 818.991 441.536 822.405 441.536C825.391 441.536 828.25 441.984 830.981 442.88C833.754 443.776 836.229 445.312 838.405 447.488L834.373 451.712C832.837 450.048 830.959 448.768 828.741 447.872C826.565 446.976 824.325 446.528 822.021 446.528C819.418 446.528 817.007 446.997 814.789 447.936C812.57 448.875 810.629 450.176 808.965 451.84C807.343 453.504 806.063 455.488 805.125 457.792C804.229 460.096 803.781 462.613 803.781 465.344C803.781 468.032 804.229 470.528 805.125 472.832C806.063 475.136 807.343 477.141 808.965 478.848C810.629 480.512 812.613 481.813 814.917 482.752C817.221 483.691 819.759 484.16 822.533 484.16C824.367 484.16 826.287 483.947 828.293 483.52C830.298 483.051 832.133 482.389 833.797 481.536V467.648H823.365V462.656H839.173V484.928Z" fill="white"/>
<path d="M112.632 442.688H118.008V483.008H138.744V488H112.632V442.688ZM152.312 442.688H180.792V447.68H157.688V461.888H179.256V466.88H157.688V483.008H181.944V488H152.312V442.688ZM236.458 484.928C233.855 486.379 231.103 487.445 228.202 488.128C225.343 488.811 222.442 489.152 219.498 489.152C215.956 489.152 212.714 488.576 209.77 487.424C206.826 486.272 204.266 484.651 202.09 482.56C199.956 480.469 198.292 477.973 197.098 475.072C195.903 472.128 195.306 468.885 195.306 465.344C195.306 461.76 195.924 458.517 197.162 455.616C198.442 452.672 200.191 450.176 202.41 448.128C204.628 446.037 207.21 444.416 210.154 443.264C213.098 442.112 216.276 441.536 219.69 441.536C222.676 441.536 225.535 441.984 228.266 442.88C231.039 443.776 233.514 445.312 235.69 447.488L231.658 451.712C230.122 450.048 228.244 448.768 226.026 447.872C223.85 446.976 221.61 446.528 219.306 446.528C216.703 446.528 214.292 446.997 212.074 447.936C209.855 448.875 207.914 450.176 206.25 451.84C204.628 453.504 203.348 455.488 202.41 457.792C201.514 460.096 201.066 462.613 201.066 465.344C201.066 468.032 201.514 470.528 202.41 472.832C203.348 475.136 204.628 477.141 206.25 478.848C207.914 480.512 209.898 481.813 212.202 482.752C214.506 483.691 217.044 484.16 219.818 484.16C221.652 484.16 223.572 483.947 225.578 483.52C227.583 483.051 229.418 482.389 231.082 481.536V467.648H220.65V462.656H236.458V484.928ZM270.142 442.688H275.198L294.462 488H288.19L283.582 476.864H260.926L256.254 488H250.174L270.142 442.688ZM272.574 449.6H272.446L263.038 471.872H281.534L272.574 449.6ZM308.165 442.688H313.541V483.008H334.277V488H308.165V442.688ZM405.081 452.032C403.716 450.197 402.03 448.832 400.025 447.936C398.02 446.997 395.929 446.528 393.753 446.528C391.236 446.528 388.91 447.04 386.777 448.064C384.686 449.088 382.873 450.475 381.337 452.224C379.801 453.931 378.606 455.936 377.753 458.24C376.9 460.501 376.473 462.869 376.473 465.344C376.473 467.989 376.9 470.464 377.753 472.768C378.606 475.029 379.78 477.013 381.273 478.72C382.809 480.384 384.622 481.707 386.713 482.688C388.846 483.669 391.193 484.16 393.753 484.16C396.526 484.16 399.001 483.627 401.177 482.56C403.353 481.451 405.252 479.872 406.873 477.824L410.905 481.216C408.857 483.947 406.382 485.952 403.481 487.232C400.622 488.512 397.38 489.152 393.753 489.152C390.51 489.152 387.481 488.555 384.665 487.36C381.849 486.165 379.396 484.523 377.305 482.432C375.257 480.299 373.636 477.781 372.441 474.88C371.289 471.979 370.713 468.8 370.713 465.344C370.713 462.016 371.268 458.901 372.377 456C373.529 453.099 375.129 450.581 377.177 448.448C379.225 446.315 381.657 444.629 384.473 443.392C387.289 442.155 390.382 441.536 393.753 441.536C396.825 441.536 399.769 442.091 402.585 443.2C405.444 444.309 407.833 446.123 409.753 448.64L405.081 452.032ZM447.136 489.152C443.68 489.152 440.501 488.555 437.6 487.36C434.741 486.165 432.245 484.523 430.112 482.432C428.021 480.299 426.378 477.781 425.184 474.88C424.032 471.936 423.456 468.757 423.456 465.344C423.456 461.931 424.032 458.773 425.184 455.872C426.378 452.928 428.021 450.411 430.112 448.32C432.245 446.187 434.741 444.523 437.6 443.328C440.501 442.133 443.68 441.536 447.136 441.536C450.592 441.536 453.749 442.133 456.608 443.328C459.509 444.523 462.005 446.187 464.096 448.32C466.229 450.411 467.872 452.928 469.024 455.872C470.218 458.773 470.816 461.931 470.816 465.344C470.816 468.757 470.218 471.936 469.024 474.88C467.872 477.781 466.229 480.299 464.096 482.432C462.005 484.523 459.509 486.165 456.608 487.36C453.749 488.555 450.592 489.152 447.136 489.152ZM447.136 484.16C449.781 484.16 452.192 483.669 454.368 482.688C456.586 481.707 458.485 480.363 460.064 478.656C461.642 476.949 462.858 474.965 463.712 472.704C464.608 470.4 465.056 467.947 465.056 465.344C465.056 462.741 464.608 460.309 463.712 458.048C462.858 455.744 461.642 453.739 460.064 452.032C458.485 450.325 456.586 448.981 454.368 448C452.192 447.019 449.781 446.528 447.136 446.528C444.49 446.528 442.058 447.019 439.84 448C437.664 448.981 435.786 450.325 434.208 452.032C432.629 453.739 431.392 455.744 430.496 458.048C429.642 460.309 429.216 462.741 429.216 465.344C429.216 467.947 429.642 470.4 430.496 472.704C431.392 474.965 432.629 476.949 434.208 478.656C435.786 480.363 437.664 481.707 439.84 482.688C442.058 483.669 444.49 484.16 447.136 484.16ZM487.135 442.688H493.919L520.159 480.32H520.287V442.688H525.663V488H518.879L492.639 450.368H492.511V488H487.135V442.688ZM566.131 450.688C565.235 449.237 564.04 448.192 562.547 447.552C561.054 446.869 559.496 446.528 557.875 446.528C556.68 446.528 555.507 446.677 554.355 446.976C553.203 447.275 552.158 447.723 551.219 448.32C550.323 448.917 549.598 449.707 549.043 450.688C548.488 451.669 548.211 452.821 548.211 454.144C548.211 455.168 548.36 456.085 548.659 456.896C549 457.664 549.534 458.368 550.259 459.008C550.984 459.648 551.966 460.245 553.203 460.8C554.44 461.355 555.955 461.909 557.747 462.464C559.496 463.019 561.182 463.616 562.803 464.256C564.467 464.896 565.918 465.707 567.155 466.688C568.435 467.669 569.438 468.907 570.163 470.4C570.931 471.851 571.315 473.685 571.315 475.904C571.315 478.165 570.867 480.128 569.971 481.792C569.075 483.456 567.88 484.843 566.387 485.952C564.936 487.019 563.251 487.808 561.331 488.32C559.411 488.875 557.427 489.152 555.379 489.152C554.056 489.152 552.734 489.024 551.411 488.768C550.088 488.555 548.808 488.213 547.571 487.744C546.376 487.232 545.246 486.592 544.179 485.824C543.112 485.013 542.195 484.032 541.427 482.88L546.035 479.104C547.016 480.768 548.382 482.027 550.131 482.88C551.88 483.733 553.736 484.16 555.699 484.16C556.851 484.16 558.003 483.989 559.155 483.648C560.35 483.307 561.416 482.816 562.355 482.176C563.294 481.493 564.062 480.661 564.659 479.68C565.256 478.699 565.555 477.568 565.555 476.288C565.555 474.88 565.32 473.749 564.851 472.896C564.382 472 563.656 471.232 562.675 470.592C561.694 469.952 560.456 469.376 558.963 468.864C557.47 468.352 555.72 467.755 553.715 467.072C552.094 466.56 550.6 465.984 549.235 465.344C547.87 464.661 546.675 463.851 545.651 462.912C544.67 461.931 543.88 460.779 543.283 459.456C542.728 458.091 542.451 456.469 542.451 454.592C542.451 452.416 542.878 450.517 543.731 448.896C544.584 447.275 545.736 445.931 547.187 444.864C548.638 443.755 550.28 442.923 552.115 442.368C553.95 441.813 555.87 441.536 557.875 441.536C560.435 441.536 562.76 441.941 564.851 442.752C566.984 443.52 568.883 444.885 570.547 446.848L566.131 450.688ZM621.853 470.72C621.853 473.195 621.533 475.541 620.893 477.76C620.296 479.979 619.315 481.941 617.949 483.648C616.627 485.312 614.877 486.656 612.701 487.68C610.525 488.661 607.88 489.152 604.765 489.152C601.651 489.152 599.005 488.661 596.829 487.68C594.653 486.656 592.883 485.312 591.517 483.648C590.195 481.941 589.213 479.979 588.573 477.76C587.976 475.541 587.677 473.195 587.677 470.72V442.688H593.053V469.952C593.053 471.787 593.245 473.557 593.629 475.264C594.013 476.971 594.653 478.485 595.549 479.808C596.445 481.131 597.64 482.197 599.133 483.008C600.627 483.776 602.504 484.16 604.765 484.16C607.027 484.16 608.904 483.776 610.397 483.008C611.891 482.197 613.085 481.131 613.981 479.808C614.877 478.485 615.517 476.971 615.901 475.264C616.285 473.557 616.477 471.787 616.477 469.952V442.688H621.853V470.72ZM640.612 442.688H645.988V483.008H666.724V488H640.612V442.688ZM704.817 447.68H689.841V488H684.465V447.68H669.489V442.688H704.817V447.68ZM718.847 442.688H724.223V488H718.847V442.688ZM743.152 442.688H749.936L776.176 480.32H776.304V442.688H781.68V488H774.896L748.656 450.368H748.528V488H743.152V442.688ZM839.173 484.928C836.57 486.379 833.818 487.445 830.917 488.128C828.058 488.811 825.157 489.152 822.213 489.152C818.671 489.152 815.429 488.576 812.485 487.424C809.541 486.272 806.981 484.651 804.805 482.56C802.671 480.469 801.007 477.973 799.813 475.072C798.618 472.128 798.021 468.885 798.021 465.344C798.021 461.76 798.639 458.517 799.877 455.616C801.157 452.672 802.906 450.176 805.125 448.128C807.343 446.037 809.925 444.416 812.869 443.264C815.813 442.112 818.991 441.536 822.405 441.536C825.391 441.536 828.25 441.984 830.981 442.88C833.754 443.776 836.229 445.312 838.405 447.488L834.373 451.712C832.837 450.048 830.959 448.768 828.741 447.872C826.565 446.976 824.325 446.528 822.021 446.528C819.418 446.528 817.007 446.997 814.789 447.936C812.57 448.875 810.629 450.176 808.965 451.84C807.343 453.504 806.063 455.488 805.125 457.792C804.229 460.096 803.781 462.613 803.781 465.344C803.781 468.032 804.229 470.528 805.125 472.832C806.063 475.136 807.343 477.141 808.965 478.848C810.629 480.512 812.613 481.813 814.917 482.752C817.221 483.691 819.759 484.16 822.533 484.16C824.367 484.16 826.287 483.947 828.293 483.52C830.298 483.051 832.133 482.389 833.797 481.536V467.648H823.365V462.656H839.173V484.928Z" fill="url(#paint16_linear_664_74)"/>
<path d="M112.632 442.688V442.188H112.132V442.688H112.632ZM118.008 442.688H118.508V442.188H118.008V442.688ZM118.008 483.008H117.508V483.508H118.008V483.008ZM138.744 483.008H139.244V482.508H138.744V483.008ZM138.744 488V488.5H139.244V488H138.744ZM112.632 488H112.132V488.5H112.632V488ZM112.632 443.188H118.008V442.188H112.632V443.188ZM117.508 442.688V483.008H118.508V442.688H117.508ZM118.008 483.508H138.744V482.508H118.008V483.508ZM138.244 483.008V488H139.244V483.008H138.244ZM138.744 487.5H112.632V488.5H138.744V487.5ZM113.132 488V442.688H112.132V488H113.132ZM152.312 442.688V442.188H151.812V442.688H152.312ZM180.792 442.688H181.292V442.188H180.792V442.688ZM180.792 447.68V448.18H181.292V447.68H180.792ZM157.688 447.68V447.18H157.188V447.68H157.688ZM157.688 461.888H157.188V462.388H157.688V461.888ZM179.256 461.888H179.756V461.388H179.256V461.888ZM179.256 466.88V467.38H179.756V466.88H179.256ZM157.688 466.88V466.38H157.188V466.88H157.688ZM157.688 483.008H157.188V483.508H157.688V483.008ZM181.944 483.008H182.444V482.508H181.944V483.008ZM181.944 488V488.5H182.444V488H181.944ZM152.312 488H151.812V488.5H152.312V488ZM152.312 443.188H180.792V442.188H152.312V443.188ZM180.292 442.688V447.68H181.292V442.688H180.292ZM180.792 447.18H157.688V448.18H180.792V447.18ZM157.188 447.68V461.888H158.188V447.68H157.188ZM157.688 462.388H179.256V461.388H157.688V462.388ZM178.756 461.888V466.88H179.756V461.888H178.756ZM179.256 466.38H157.688V467.38H179.256V466.38ZM157.188 466.88V483.008H158.188V466.88H157.188ZM157.688 483.508H181.944V482.508H157.688V483.508ZM181.444 483.008V488H182.444V483.008H181.444ZM181.944 487.5H152.312V488.5H181.944V487.5ZM152.812 488V442.688H151.812V488H152.812ZM236.458 484.928L236.701 485.365L236.958 485.222V484.928H236.458ZM228.202 488.128L228.087 487.641L228.085 487.642L228.202 488.128ZM209.77 487.424L209.587 487.89L209.587 487.89L209.77 487.424ZM202.09 482.56L201.74 482.917L201.743 482.921L202.09 482.56ZM197.098 475.072L196.634 475.26L196.635 475.262L197.098 475.072ZM197.162 455.616L196.703 455.417L196.702 455.42L197.162 455.616ZM202.41 448.128L202.749 448.495L202.752 448.492L202.41 448.128ZM210.154 443.264L209.971 442.798L209.971 442.798L210.154 443.264ZM228.266 442.88L228.11 443.355L228.112 443.356L228.266 442.88ZM235.69 447.488L236.051 447.833L236.388 447.48L236.043 447.134L235.69 447.488ZM231.658 451.712L231.29 452.051L231.651 452.443L232.019 452.057L231.658 451.712ZM226.026 447.872L225.835 448.334L225.838 448.336L226.026 447.872ZM212.074 447.936L211.879 447.476L211.879 447.476L212.074 447.936ZM206.25 451.84L205.896 451.486L205.891 451.491L206.25 451.84ZM202.41 457.792L201.946 457.603L201.943 457.611L202.41 457.792ZM202.41 472.832L201.943 473.013L201.946 473.021L202.41 472.832ZM206.25 478.848L205.887 479.192L205.896 479.202L206.25 478.848ZM212.202 482.752L212.39 482.289L212.39 482.289L212.202 482.752ZM225.578 483.52L225.682 484.009L225.691 484.007L225.578 483.52ZM231.082 481.536L231.31 481.981L231.582 481.842V481.536H231.082ZM231.082 467.648H231.582V467.148H231.082V467.648ZM220.65 467.648H220.15V468.148H220.65V467.648ZM220.65 462.656V462.156H220.15V462.656H220.65ZM236.458 462.656H236.958V462.156H236.458V462.656ZM236.214 484.491C233.652 485.919 230.943 486.969 228.087 487.641L228.316 488.615C231.262 487.921 234.058 486.838 236.701 485.365L236.214 484.491ZM228.085 487.642C225.265 488.315 222.402 488.652 219.498 488.652V489.652C222.481 489.652 225.421 489.306 228.318 488.614L228.085 487.642ZM219.498 488.652C216.011 488.652 212.831 488.085 209.952 486.958L209.587 487.89C212.596 489.067 215.901 489.652 219.498 489.652V488.652ZM209.952 486.958C207.066 485.829 204.562 484.243 202.436 482.199L201.743 482.921C203.969 485.059 206.585 486.715 209.587 487.89L209.952 486.958ZM202.439 482.203C200.357 480.162 198.73 477.724 197.56 474.882L196.635 475.262C197.854 478.223 199.555 480.777 201.74 482.917L202.439 482.203ZM197.561 474.884C196.393 472.006 195.806 468.828 195.806 465.344H194.806C194.806 468.942 195.413 472.25 196.634 475.26L197.561 474.884ZM195.806 465.344C195.806 461.818 196.414 458.644 197.621 455.812L196.702 455.42C195.434 458.391 194.806 461.702 194.806 465.344H195.806ZM197.62 455.815C198.874 452.931 200.584 450.493 202.749 448.495L202.07 447.761C199.797 449.859 198.009 452.413 196.703 455.417L197.62 455.815ZM202.752 448.492C204.923 446.447 207.449 444.859 210.336 443.73L209.971 442.798C206.97 443.973 204.334 445.628 202.067 447.764L202.752 448.492ZM210.336 443.73C213.217 442.602 216.334 442.036 219.69 442.036V441.036C216.219 441.036 212.978 441.622 209.971 442.798L210.336 443.73ZM219.69 442.036C222.625 442.036 225.431 442.476 228.11 443.355L228.421 442.405C225.638 441.492 222.727 441.036 219.69 441.036V442.036ZM228.112 443.356C230.806 444.226 233.213 445.718 235.336 447.842L236.043 447.134C233.814 444.906 231.272 443.326 228.419 442.404L228.112 443.356ZM235.328 447.143L231.296 451.367L232.019 452.057L236.051 447.833L235.328 447.143ZM232.025 451.373C230.436 449.652 228.496 448.33 226.213 447.408L225.838 448.336C227.992 449.206 229.807 450.444 231.29 452.051L232.025 451.373ZM226.216 447.41C223.981 446.489 221.676 446.028 219.306 446.028V447.028C221.543 447.028 223.718 447.463 225.835 448.334L226.216 447.41ZM219.306 446.028C216.641 446.028 214.164 446.509 211.879 447.476L212.268 448.396C214.421 447.486 216.764 447.028 219.306 447.028V446.028ZM211.879 447.476C209.602 448.439 207.607 449.776 205.896 451.486L206.603 452.194C208.22 450.576 210.108 449.311 212.268 448.396L211.879 447.476ZM205.891 451.491C204.222 453.204 202.908 455.244 201.946 457.603L202.873 457.981C203.789 455.732 205.034 453.804 206.608 452.189L205.891 451.491ZM201.943 457.611C201.023 459.978 200.566 462.558 200.566 465.344H201.566C201.566 462.669 202.004 460.214 202.876 457.973L201.943 457.611ZM200.566 465.344C200.566 468.089 201.023 470.647 201.943 473.013L202.876 472.651C202.004 470.409 201.566 467.975 201.566 465.344H200.566ZM201.946 473.021C202.907 475.379 204.22 477.438 205.887 479.192L206.612 478.504C205.036 476.845 203.789 474.893 202.873 472.643L201.946 473.021ZM205.896 479.202C207.61 480.915 209.651 482.253 212.013 483.215L212.39 482.289C210.144 481.374 208.217 480.109 206.603 478.494L205.896 479.202ZM212.013 483.215C214.383 484.181 216.987 484.66 219.818 484.66V483.66C217.101 483.66 214.628 483.201 212.39 482.289L212.013 483.215ZM219.818 484.66C221.691 484.66 223.646 484.442 225.682 484.009L225.473 483.031C223.498 483.451 221.613 483.66 219.818 483.66V484.66ZM225.691 484.007C227.732 483.529 229.606 482.855 231.31 481.981L230.853 481.091C229.229 481.924 227.433 482.572 225.464 483.033L225.691 484.007ZM231.582 481.536V467.648H230.582V481.536H231.582ZM231.082 467.148H220.65V468.148H231.082V467.148ZM221.15 467.648V462.656H220.15V467.648H221.15ZM220.65 463.156H236.458V462.156H220.65V463.156ZM235.958 462.656V484.928H236.958V462.656H235.958ZM270.142 442.688V442.188H269.816L269.684 442.486L270.142 442.688ZM275.198 442.688L275.658 442.492L275.529 442.188H275.198V442.688ZM294.462 488V488.5H295.218L294.922 487.804L294.462 488ZM288.19 488L287.728 488.191L287.856 488.5H288.19V488ZM283.582 476.864L284.044 476.673L283.916 476.364H283.582V476.864ZM260.926 476.864V476.364H260.594L260.465 476.671L260.926 476.864ZM256.254 488V488.5H256.586L256.715 488.193L256.254 488ZM250.174 488L249.716 487.798L249.407 488.5H250.174V488ZM272.574 449.6L273.038 449.413L272.912 449.1H272.574V449.6ZM272.446 449.6V449.1H272.114L271.985 449.405L272.446 449.6ZM263.038 471.872L262.577 471.677L262.284 472.372H263.038V471.872ZM281.534 471.872V472.372H282.274L281.998 471.685L281.534 471.872ZM270.142 443.188H275.198V442.188H270.142V443.188ZM274.738 442.884L294.002 488.196L294.922 487.804L275.658 442.492L274.738 442.884ZM294.462 487.5H288.19V488.5H294.462V487.5ZM288.652 487.809L284.044 476.673L283.12 477.055L287.728 488.191L288.652 487.809ZM283.582 476.364H260.926V477.364H283.582V476.364ZM260.465 476.671L255.793 487.807L256.715 488.193L261.387 477.057L260.465 476.671ZM256.254 487.5H250.174V488.5H256.254V487.5ZM250.632 488.202L270.6 442.89L269.684 442.486L249.716 487.798L250.632 488.202ZM272.574 449.1H272.446V450.1H272.574V449.1ZM271.985 449.405L262.577 471.677L263.499 472.067L272.907 449.795L271.985 449.405ZM263.038 472.372H281.534V471.372H263.038V472.372ZM281.998 471.685L273.038 449.413L272.11 449.787L281.07 472.059L281.998 471.685ZM308.165 442.688V442.188H307.665V442.688H308.165ZM313.541 442.688H314.041V442.188H313.541V442.688ZM313.541 483.008H313.041V483.508H313.541V483.008ZM334.277 483.008H334.777V482.508H334.277V483.008ZM334.277 488V488.5H334.777V488H334.277ZM308.165 488H307.665V488.5H308.165V488ZM308.165 443.188H313.541V442.188H308.165V443.188ZM313.041 442.688V483.008H314.041V442.688H313.041ZM313.541 483.508H334.277V482.508H313.541V483.508ZM333.777 483.008V488H334.777V483.008H333.777ZM334.277 487.5H308.165V488.5H334.277V487.5ZM308.665 488V442.688H307.665V488H308.665ZM405.081 452.032L404.68 452.331L404.975 452.727L405.375 452.437L405.081 452.032ZM400.025 447.936L399.813 448.389L399.821 448.393L400.025 447.936ZM386.777 448.064L386.561 447.613L386.557 447.615L386.777 448.064ZM381.337 452.224L381.709 452.559L381.713 452.554L381.337 452.224ZM377.753 458.24L378.221 458.417L378.222 458.414L377.753 458.24ZM377.753 472.768L377.284 472.942L377.285 472.945L377.753 472.768ZM381.273 478.72L380.897 479.049L380.906 479.059L381.273 478.72ZM386.713 482.688L386.501 483.141L386.504 483.142L386.713 482.688ZM401.177 482.56L401.397 483.009L401.404 483.005L401.177 482.56ZM406.873 477.824L407.195 477.441L406.801 477.11L406.481 477.514L406.873 477.824ZM410.905 481.216L411.305 481.516L411.589 481.138L411.227 480.833L410.905 481.216ZM403.481 487.232L403.279 486.775L403.277 486.776L403.481 487.232ZM384.665 487.36L384.47 487.82L384.47 487.82L384.665 487.36ZM377.305 482.432L376.944 482.778L376.951 482.786L377.305 482.432ZM372.441 474.88L371.976 475.065L371.979 475.07L372.441 474.88ZM372.377 456L371.912 455.815L371.91 455.821L372.377 456ZM377.177 448.448L376.816 448.102L376.816 448.102L377.177 448.448ZM384.473 443.392L384.674 443.85L384.674 443.85L384.473 443.392ZM402.585 443.2L402.402 443.665L402.404 443.666L402.585 443.2ZM409.753 448.64L410.047 449.045L410.461 448.744L410.151 448.337L409.753 448.64ZM405.482 451.733C404.068 449.833 402.316 448.412 400.229 447.479L399.821 448.393C401.745 449.252 403.363 450.562 404.68 452.331L405.482 451.733ZM400.237 447.483C398.166 446.514 396.004 446.028 393.753 446.028V447.028C395.854 447.028 397.873 447.481 399.813 448.389L400.237 447.483ZM393.753 446.028C391.166 446.028 388.766 446.555 386.561 447.613L386.993 448.515C389.055 447.525 391.306 447.028 393.753 447.028V446.028ZM386.557 447.615C384.407 448.668 382.541 450.095 380.961 451.894L381.713 452.554C383.205 450.854 384.966 449.508 386.997 448.513L386.557 447.615ZM380.965 451.89C379.384 453.646 378.158 455.707 377.284 458.066L378.222 458.414C379.055 456.165 380.218 454.215 381.709 452.558L380.965 451.89ZM377.285 458.063C376.41 460.383 375.973 462.81 375.973 465.344H376.973C376.973 462.928 377.389 460.62 378.221 458.417L377.285 458.063ZM375.973 465.344C375.973 468.044 376.409 470.578 377.284 472.942L378.222 472.594C377.391 470.35 376.973 467.935 376.973 465.344H375.973ZM377.285 472.945C378.158 475.258 379.361 477.295 380.897 479.049L381.649 478.391C380.198 476.732 379.054 474.801 378.221 472.591L377.285 472.945ZM380.906 479.059C382.486 480.772 384.353 482.132 386.501 483.141L386.925 482.235C384.892 481.281 383.132 479.996 381.64 478.381L380.906 479.059ZM386.504 483.142C388.709 484.156 391.127 484.66 393.753 484.66V483.66C391.259 483.66 388.984 483.182 386.922 482.234L386.504 483.142ZM393.753 484.66C396.592 484.66 399.143 484.114 401.397 483.009L400.957 482.111C398.859 483.14 396.461 483.66 393.753 483.66V484.66ZM401.404 483.005C403.649 481.861 405.602 480.235 407.265 478.134L406.481 477.514C404.901 479.509 403.057 481.04 400.95 482.115L401.404 483.005ZM406.551 478.207L410.583 481.599L411.227 480.833L407.195 477.441L406.551 478.207ZM410.505 480.916C408.504 483.583 406.096 485.532 403.279 486.775L403.683 487.689C406.669 486.372 409.21 484.31 411.305 481.516L410.505 480.916ZM403.277 486.776C400.492 488.023 397.32 488.652 393.753 488.652V489.652C397.439 489.652 400.753 489.001 403.685 487.688L403.277 486.776ZM393.753 488.652C390.573 488.652 387.611 488.067 384.86 486.9L384.47 487.82C387.351 489.043 390.447 489.652 393.753 489.652V488.652ZM384.86 486.9C382.101 485.729 379.702 484.122 377.659 482.078L376.951 482.786C379.089 484.923 381.597 486.601 384.47 487.82L384.86 486.9ZM377.666 482.086C375.664 480 374.076 477.537 372.903 474.69L371.979 475.07C373.196 478.026 374.85 480.597 376.944 482.778L377.666 482.086ZM372.906 474.695C371.779 471.859 371.213 468.744 371.213 465.344H370.213C370.213 468.856 370.799 472.098 371.976 475.065L372.906 474.695ZM371.213 465.344C371.213 462.073 371.758 459.019 372.844 456.179L371.91 455.821C370.777 458.784 370.213 461.959 370.213 465.344H371.213ZM372.842 456.185C373.971 453.34 375.537 450.878 377.538 448.794L376.816 448.102C374.721 450.284 373.087 452.857 371.912 455.815L372.842 456.185ZM377.538 448.794C379.538 446.71 381.916 445.062 384.674 443.85L384.272 442.934C381.398 444.197 378.911 445.919 376.816 448.102L377.538 448.794ZM384.674 443.85C387.421 442.643 390.445 442.036 393.753 442.036V441.036C390.32 441.036 387.157 441.666 384.272 442.934L384.674 443.85ZM393.753 442.036C396.763 442.036 399.645 442.579 402.402 443.665L402.768 442.735C399.893 441.602 396.887 441.036 393.753 441.036V442.036ZM402.404 443.666C405.174 444.741 407.489 446.497 409.355 448.943L410.151 448.337C408.177 445.749 405.713 443.878 402.766 442.734L402.404 443.666ZM409.459 448.235L404.787 451.627L405.375 452.437L410.047 449.045L409.459 448.235ZM437.6 487.36L437.407 487.821L437.409 487.822L437.6 487.36ZM430.112 482.432L429.754 482.782L429.762 482.789L430.112 482.432ZM425.184 474.88L424.718 475.062L424.721 475.07L425.184 474.88ZM425.184 455.872L424.72 455.684L424.719 455.687L425.184 455.872ZM430.112 448.32L430.465 448.674L430.465 448.674L430.112 448.32ZM437.6 443.328L437.409 442.866L437.407 442.867L437.6 443.328ZM456.608 443.328L456.415 443.789L456.417 443.79L456.608 443.328ZM464.096 448.32L463.738 448.67L463.746 448.677L464.096 448.32ZM469.024 455.872L468.558 456.054L468.561 456.062L469.024 455.872ZM469.024 474.88L468.56 474.692L468.559 474.695L469.024 474.88ZM464.096 482.432L464.449 482.786L464.449 482.786L464.096 482.432ZM456.608 487.36L456.417 486.898L456.415 486.899L456.608 487.36ZM454.368 482.688L454.165 482.231L454.162 482.232L454.368 482.688ZM460.064 478.656L459.696 478.316L459.696 478.316L460.064 478.656ZM463.712 472.704L463.245 472.523L463.244 472.527L463.712 472.704ZM463.712 458.048L463.243 458.222L463.247 458.232L463.712 458.048ZM454.368 448L454.162 448.456L454.165 448.457L454.368 448ZM439.84 448L439.637 447.543L439.634 447.544L439.84 448ZM430.496 458.048L430.029 457.867L430.028 457.871L430.496 458.048ZM430.496 472.704L430.027 472.878L430.031 472.888L430.496 472.704ZM434.208 478.656L434.575 478.316L434.575 478.316L434.208 478.656ZM439.84 482.688L439.634 483.144L439.637 483.145L439.84 482.688ZM447.136 488.652C443.738 488.652 440.625 488.065 437.79 486.898L437.409 487.822C440.377 489.044 443.621 489.652 447.136 489.652V488.652ZM437.792 486.899C434.99 485.728 432.548 484.12 430.461 482.075L429.762 482.789C431.942 484.926 434.492 486.603 437.407 487.821L437.792 486.899ZM430.469 482.082C428.425 479.997 426.817 477.535 425.646 474.69L424.721 475.07C425.939 478.028 427.616 480.6 429.754 482.782L430.469 482.082ZM425.649 474.698C424.522 471.816 423.956 468.7 423.956 465.344H422.956C422.956 468.815 423.541 472.056 424.718 475.062L425.649 474.698ZM423.956 465.344C423.956 461.988 424.522 458.894 425.648 456.057L424.719 455.687C423.541 458.653 422.956 461.873 422.956 465.344H423.956ZM425.647 456.06C426.818 453.173 428.425 450.713 430.465 448.674L429.758 447.966C427.617 450.108 425.938 452.683 424.72 455.684L425.647 456.06ZM430.465 448.674C432.551 446.588 434.992 444.96 437.792 443.789L437.407 442.867C434.49 444.086 431.939 445.786 429.758 447.966L430.465 448.674ZM437.79 443.79C440.625 442.623 443.738 442.036 447.136 442.036V441.036C443.621 441.036 440.377 441.644 437.409 442.866L437.79 443.79ZM447.136 442.036C450.533 442.036 453.624 442.623 456.415 443.789L456.8 442.867C453.874 441.644 450.65 441.036 447.136 441.036V442.036ZM456.417 443.79C459.259 444.961 461.698 446.587 463.738 448.67L464.453 447.97C462.312 445.786 459.759 444.085 456.798 442.866L456.417 443.79ZM463.746 448.677C465.825 450.715 467.43 453.172 468.558 456.054L469.489 455.69C468.313 452.684 466.632 450.106 464.445 447.963L463.746 448.677ZM468.561 456.062C469.729 458.898 470.316 461.99 470.316 465.344H471.316C471.316 461.871 470.707 458.648 469.486 455.682L468.561 456.062ZM470.316 465.344C470.316 468.698 469.729 471.812 468.56 474.692L469.487 475.068C470.707 472.06 471.316 468.817 471.316 465.344H470.316ZM468.559 474.695C467.431 477.536 465.825 479.995 463.742 482.078L464.449 482.786C466.632 480.602 468.312 478.027 469.488 475.065L468.559 474.695ZM463.742 482.078C461.701 484.12 459.261 485.727 456.417 486.898L456.798 487.822C459.756 486.604 462.309 484.926 464.449 482.786L463.742 482.078ZM456.415 486.899C453.624 488.065 450.533 488.652 447.136 488.652V489.652C450.65 489.652 453.874 489.044 456.8 487.821L456.415 486.899ZM447.136 484.66C449.844 484.66 452.326 484.157 454.573 483.144L454.162 482.232C452.057 483.181 449.718 483.66 447.136 483.66V484.66ZM454.57 483.145C456.848 482.138 458.804 480.754 460.431 478.996L459.696 478.316C458.166 479.971 456.324 481.276 454.165 482.231L454.57 483.145ZM460.431 478.996C462.055 477.24 463.304 475.2 464.179 472.881L463.244 472.527C462.412 474.731 461.23 476.659 459.696 478.316L460.431 478.996ZM464.178 472.885C465.097 470.52 465.556 468.005 465.556 465.344H464.556C464.556 467.888 464.118 470.28 463.246 472.523L464.178 472.885ZM465.556 465.344C465.556 462.683 465.097 460.188 464.176 457.864L463.247 458.232C464.118 460.431 464.556 462.8 464.556 465.344H465.556ZM464.18 457.874C463.306 455.512 462.056 453.45 460.431 451.692L459.696 452.372C461.228 454.027 462.411 455.976 463.243 458.222L464.18 457.874ZM460.431 451.692C458.804 449.934 456.848 448.55 454.57 447.543L454.165 448.457C456.324 449.412 458.166 450.717 459.696 452.372L460.431 451.692ZM454.573 447.544C452.326 446.531 449.844 446.028 447.136 446.028V447.028C449.718 447.028 452.057 447.507 454.162 448.456L454.573 447.544ZM447.136 446.028C444.427 446.028 441.925 446.531 439.637 447.543L440.042 448.457C442.191 447.507 444.553 447.028 447.136 447.028V446.028ZM439.634 447.544C437.399 448.552 435.466 449.935 433.84 451.692L434.575 452.372C436.106 450.715 437.928 449.41 440.045 448.456L439.634 447.544ZM433.84 451.692C432.217 453.448 430.947 455.508 430.03 457.867L430.962 458.229C431.836 455.98 433.041 454.029 434.575 452.372L433.84 451.692ZM430.028 457.871C429.152 460.193 428.716 462.686 428.716 465.344H429.716C429.716 462.797 430.133 460.425 430.963 458.225L430.028 457.871ZM428.716 465.344C428.716 468.002 429.152 470.515 430.027 472.878L430.964 472.53C430.133 470.285 429.716 467.891 429.716 465.344H428.716ZM430.031 472.888C430.948 475.204 432.218 477.241 433.84 478.996L434.575 478.316C433.04 476.657 431.835 474.726 430.96 472.52L430.031 472.888ZM433.84 478.996C435.466 480.753 437.399 482.136 439.634 483.144L440.045 482.232C437.928 481.278 436.106 479.973 434.575 478.316L433.84 478.996ZM439.637 483.145C441.925 484.157 444.427 484.66 447.136 484.66V483.66C444.553 483.66 442.191 483.181 440.042 482.231L439.637 483.145ZM487.135 442.688V442.188H486.635V442.688H487.135ZM493.919 442.688L494.329 442.402L494.179 442.188H493.919V442.688ZM520.159 480.32L519.748 480.606L519.898 480.82H520.159V480.32ZM520.287 480.32V480.82H520.787V480.32H520.287ZM520.287 442.688V442.188H519.787V442.688H520.287ZM525.663 442.688H526.163V442.188H525.663V442.688ZM525.663 488V488.5H526.163V488H525.663ZM518.879 488L518.468 488.286L518.618 488.5H518.879V488ZM492.639 450.368L493.049 450.082L492.899 449.868H492.639V450.368ZM492.511 450.368V449.868H492.011V450.368H492.511ZM492.511 488V488.5H493.011V488H492.511ZM487.135 488H486.635V488.5H487.135V488ZM487.135 443.188H493.919V442.188H487.135V443.188ZM493.508 442.974L519.748 480.606L520.569 480.034L494.329 442.402L493.508 442.974ZM520.159 480.82H520.287V479.82H520.159V480.82ZM520.787 480.32V442.688H519.787V480.32H520.787ZM520.287 443.188H525.663V442.188H520.287V443.188ZM525.163 442.688V488H526.163V442.688H525.163ZM525.663 487.5H518.879V488.5H525.663V487.5ZM519.289 487.714L493.049 450.082L492.228 450.654L518.468 488.286L519.289 487.714ZM492.639 449.868H492.511V450.868H492.639V449.868ZM492.011 450.368V488H493.011V450.368H492.011ZM492.511 487.5H487.135V488.5H492.511V487.5ZM487.635 488V442.688H486.635V488H487.635ZM566.131 450.688L565.706 450.951L566.015 451.452L566.459 451.065L566.131 450.688ZM562.547 447.552L562.339 448.007L562.35 448.012L562.547 447.552ZM554.355 446.976L554.23 446.492L554.23 446.492L554.355 446.976ZM551.219 448.32L550.95 447.898L550.942 447.904L551.219 448.32ZM548.659 456.896L548.19 457.069L548.195 457.084L548.202 457.099L548.659 456.896ZM550.259 459.008L549.928 459.383L549.928 459.383L550.259 459.008ZM553.203 460.8L552.998 461.256L552.998 461.256L553.203 460.8ZM557.747 462.464L557.898 461.987L557.895 461.986L557.747 462.464ZM562.803 464.256L562.619 464.721L562.624 464.723L562.803 464.256ZM567.155 466.688L566.844 467.08L566.851 467.085L567.155 466.688ZM570.163 470.4L569.713 470.618L569.717 470.626L569.721 470.634L570.163 470.4ZM569.971 481.792L570.411 482.029L570.411 482.029L569.971 481.792ZM566.387 485.952L566.683 486.355L566.685 486.353L566.387 485.952ZM561.331 488.32L561.202 487.837L561.192 487.84L561.331 488.32ZM551.411 488.768L551.506 488.277L551.498 488.276L551.491 488.274L551.411 488.768ZM547.571 487.744L547.374 488.204L547.384 488.208L547.394 488.211L547.571 487.744ZM544.179 485.824L543.876 486.222L543.887 486.23L544.179 485.824ZM541.427 482.88L541.11 482.493L540.76 482.78L541.011 483.157L541.427 482.88ZM546.035 479.104L546.466 478.85L546.169 478.347L545.718 478.717L546.035 479.104ZM550.131 482.88L550.35 482.431L550.35 482.431L550.131 482.88ZM559.155 483.648L559.018 483.167L559.013 483.169L559.155 483.648ZM562.355 482.176L562.637 482.589L562.643 482.585L562.649 482.58L562.355 482.176ZM564.659 479.68L564.232 479.42L564.659 479.68ZM564.851 472.896L564.408 473.128L564.413 473.137L564.851 472.896ZM562.675 470.592L562.948 470.173L562.948 470.173L562.675 470.592ZM558.963 468.864L559.125 468.391L559.125 468.391L558.963 468.864ZM553.715 467.072L553.876 466.599L553.866 466.595L553.715 467.072ZM549.235 465.344L549.011 465.791L549.023 465.797L549.235 465.344ZM545.651 462.912L545.297 463.266L545.305 463.273L545.313 463.281L545.651 462.912ZM543.283 459.456L542.82 459.644L542.823 459.653L542.827 459.662L543.283 459.456ZM543.731 448.896L544.173 449.129L544.173 449.129L543.731 448.896ZM547.187 444.864L547.483 445.267L547.491 445.261L547.187 444.864ZM552.115 442.368L551.97 441.889L551.97 441.889L552.115 442.368ZM564.851 442.752L564.67 443.218L564.682 443.222L564.851 442.752ZM570.547 446.848L570.875 447.225L571.248 446.901L570.928 446.525L570.547 446.848ZM566.556 450.425C565.609 448.892 564.337 447.775 562.744 447.092L562.35 448.012C563.744 448.609 564.861 449.583 565.706 450.951L566.556 450.425ZM562.755 447.097C561.197 446.385 559.569 446.028 557.875 446.028V447.028C559.424 447.028 560.91 447.354 562.339 448.007L562.755 447.097ZM557.875 446.028C556.638 446.028 555.423 446.183 554.23 446.492L554.48 447.46C555.591 447.172 556.723 447.028 557.875 447.028V446.028ZM554.23 446.492C553.03 446.803 551.936 447.271 550.951 447.898L551.487 448.742C552.379 448.174 553.376 447.746 554.48 447.46L554.23 446.492ZM550.942 447.904C549.977 448.547 549.199 449.396 548.608 450.442L549.478 450.934C549.996 450.018 550.669 449.288 551.496 448.736L550.942 447.904ZM548.608 450.442C548.004 451.51 547.711 452.75 547.711 454.144H548.711C548.711 452.893 548.973 451.828 549.478 450.934L548.608 450.442ZM547.711 454.144C547.711 455.216 547.867 456.194 548.19 457.069L549.128 456.723C548.853 455.977 548.711 455.12 548.711 454.144H547.711ZM548.202 457.099C548.577 457.942 549.157 458.703 549.928 459.383L550.59 458.633C549.91 458.033 549.424 457.386 549.116 456.693L548.202 457.099ZM549.928 459.383C550.703 460.067 551.732 460.689 552.998 461.256L553.408 460.344C552.199 459.802 551.266 459.229 550.59 458.633L549.928 459.383ZM552.998 461.256C554.26 461.822 555.795 462.383 557.599 462.942L557.895 461.986C556.115 461.436 554.621 460.888 553.408 460.344L552.998 461.256ZM557.596 462.941C559.335 463.492 561.009 464.086 562.619 464.721L562.987 463.791C561.354 463.146 559.658 462.545 557.898 461.987L557.596 462.941ZM562.624 464.723C564.246 465.347 565.651 466.134 566.844 467.08L567.466 466.296C566.184 465.28 564.688 464.445 562.982 463.789L562.624 464.723ZM566.851 467.085C568.067 468.017 569.021 469.193 569.713 470.618L570.613 470.182C569.854 468.62 568.803 467.321 567.459 466.291L566.851 467.085ZM569.721 470.634C570.44 471.992 570.815 473.739 570.815 475.904H571.815C571.815 473.631 571.422 471.71 570.605 470.166L569.721 470.634ZM570.815 475.904C570.815 478.099 570.381 479.977 569.531 481.555L570.411 482.029C571.353 480.279 571.815 478.232 571.815 475.904H570.815ZM569.531 481.555C568.669 483.155 567.522 484.486 566.089 485.551L566.685 486.353C568.238 485.2 569.481 483.757 570.411 482.029L569.531 481.555ZM566.091 485.549C564.695 486.575 563.068 487.339 561.202 487.837L561.46 488.803C563.434 488.277 565.177 487.462 566.683 486.355L566.091 485.549ZM561.192 487.84C559.318 488.381 557.381 488.652 555.379 488.652V489.652C557.473 489.652 559.504 489.368 561.47 488.8L561.192 487.84ZM555.379 488.652C554.089 488.652 552.798 488.527 551.506 488.277L551.316 489.259C552.669 489.521 554.024 489.652 555.379 489.652V488.652ZM551.491 488.274C550.201 488.066 548.954 487.734 547.748 487.277L547.394 488.211C548.663 488.693 549.976 489.043 551.331 489.262L551.491 488.274ZM547.768 487.284C546.607 486.787 545.508 486.165 544.471 485.418L543.887 486.23C544.983 487.019 546.145 487.677 547.374 488.204L547.768 487.284ZM544.482 485.426C543.461 484.65 542.581 483.71 541.843 482.603L541.011 483.157C541.809 484.354 542.764 485.377 543.876 486.222L544.482 485.426ZM541.744 483.267L546.352 479.491L545.718 478.717L541.11 482.493L541.744 483.267ZM545.604 479.358C546.636 481.107 548.075 482.433 549.912 483.329L550.35 482.431C548.688 481.62 547.397 480.429 546.466 478.85L545.604 479.358ZM549.912 483.329C551.73 484.216 553.661 484.66 555.699 484.66V483.66C553.812 483.66 552.031 483.25 550.35 482.431L549.912 483.329ZM555.699 484.66C556.901 484.66 558.101 484.482 559.297 484.127L559.013 483.169C557.905 483.497 556.801 483.66 555.699 483.66V484.66ZM559.292 484.129C560.534 483.774 561.65 483.262 562.637 482.589L562.073 481.763C561.183 482.37 560.166 482.839 559.018 483.167L559.292 484.129ZM562.649 482.58C563.641 481.859 564.454 480.978 565.086 479.94L564.232 479.42C563.669 480.344 562.947 481.127 562.061 481.772L562.649 482.58ZM565.086 479.94C565.736 478.872 566.055 477.649 566.055 476.288H565.055C565.055 477.487 564.776 478.526 564.232 479.42L565.086 479.94ZM566.055 476.288C566.055 474.831 565.813 473.608 565.289 472.655L564.413 473.137C564.828 473.891 565.055 474.929 565.055 476.288H566.055ZM565.294 472.664C564.779 471.681 563.99 470.852 562.948 470.173L562.402 471.011C563.323 471.612 563.984 472.319 564.408 473.128L565.294 472.664ZM562.948 470.173C561.923 469.504 560.645 468.912 559.125 468.391L558.801 469.337C560.268 469.84 561.465 470.4 562.402 471.011L562.948 470.173ZM559.125 468.391C557.631 467.879 555.882 467.281 553.876 466.599L553.554 467.545C555.559 468.228 557.308 468.825 558.801 469.337L559.125 468.391ZM553.866 466.595C552.263 466.089 550.79 465.521 549.447 464.891L549.023 465.797C550.41 466.447 551.925 467.031 553.564 467.549L553.866 466.595ZM549.459 464.897C548.131 464.233 546.975 463.448 545.989 462.543L545.313 463.281C546.375 464.254 547.609 465.09 549.011 465.791L549.459 464.897ZM546.005 462.558C545.068 461.622 544.312 460.52 543.739 459.25L542.827 459.662C543.448 461.037 544.271 462.24 545.297 463.266L546.005 462.558ZM543.746 459.268C543.221 457.976 542.951 456.422 542.951 454.592H541.951C541.951 456.517 542.235 458.205 542.82 459.644L543.746 459.268ZM542.951 454.592C542.951 452.482 543.364 450.666 544.173 449.129L543.289 448.663C542.391 450.369 541.951 452.35 541.951 454.592H542.951ZM544.173 449.129C544.992 447.573 546.095 446.288 547.483 445.267L546.891 444.461C545.378 445.573 544.176 446.976 543.289 448.663L544.173 449.129ZM547.491 445.261C548.891 444.19 550.48 443.385 552.26 442.847L551.97 441.889C550.081 442.461 548.384 443.319 546.883 444.467L547.491 445.261ZM552.26 442.847C554.045 442.307 555.916 442.036 557.875 442.036V441.036C555.823 441.036 553.854 441.32 551.97 441.889L552.26 442.847ZM557.875 442.036C560.382 442.036 562.645 442.433 564.67 443.218L565.032 442.286C562.876 441.45 560.488 441.036 557.875 441.036V442.036ZM564.682 443.222C566.722 443.957 568.55 445.266 570.166 447.171L570.928 446.525C569.216 444.504 567.247 443.083 565.02 442.282L564.682 443.222ZM570.219 446.471L565.803 450.311L566.459 451.065L570.875 447.225L570.219 446.471ZM620.893 477.76L620.413 477.621L620.411 477.63L620.893 477.76ZM617.949 483.648L617.559 483.336L617.558 483.337L617.949 483.648ZM612.701 487.68L612.907 488.136L612.914 488.132L612.701 487.68ZM596.829 487.68L596.617 488.132L596.624 488.136L596.829 487.68ZM591.517 483.648L591.122 483.954L591.131 483.965L591.517 483.648ZM588.573 477.76L588.091 477.89L588.093 477.899L588.573 477.76ZM587.677 442.688V442.188H587.177V442.688H587.677ZM593.053 442.688H593.553V442.188H593.053V442.688ZM593.629 475.264L593.142 475.374L593.142 475.374L593.629 475.264ZM595.549 479.808L595.136 480.088L595.136 480.088L595.549 479.808ZM599.133 483.008L598.895 483.448L598.905 483.453L599.133 483.008ZM610.397 483.008L610.626 483.453L610.636 483.447L610.397 483.008ZM613.981 479.808L613.568 479.528L613.981 479.808ZM615.901 475.264L615.414 475.154L615.414 475.154L615.901 475.264ZM616.477 442.688V442.188H615.977V442.688H616.477ZM621.853 442.688H622.353V442.188H621.853V442.688ZM621.353 470.72C621.353 473.151 621.039 475.451 620.413 477.621L621.374 477.899C622.028 475.632 622.353 473.238 622.353 470.72H621.353ZM620.411 477.63C619.83 479.786 618.879 481.686 617.559 483.336L618.34 483.96C619.75 482.197 620.762 480.172 621.376 477.89L620.411 477.63ZM617.558 483.337C616.289 484.933 614.604 486.232 612.489 487.228L612.914 488.132C615.151 487.08 616.964 485.691 618.341 483.959L617.558 483.337ZM612.496 487.224C610.401 488.169 607.83 488.652 604.765 488.652V489.652C607.93 489.652 610.65 489.154 612.907 488.136L612.496 487.224ZM604.765 488.652C601.701 488.652 599.13 488.169 597.035 487.224L596.624 488.136C598.881 489.154 601.601 489.652 604.765 489.652V488.652ZM597.042 487.228C594.926 486.231 593.217 484.931 591.904 483.331L591.131 483.965C592.549 485.693 594.381 487.081 596.617 488.132L597.042 487.228ZM591.913 483.342C590.631 481.688 589.678 479.784 589.054 477.621L588.093 477.899C588.749 480.174 589.758 482.194 591.122 483.954L591.913 483.342ZM589.056 477.63C588.471 475.457 588.177 473.154 588.177 470.72H587.177C587.177 473.235 587.481 475.626 588.091 477.89L589.056 477.63ZM588.177 470.72V442.688H587.177V470.72H588.177ZM587.677 443.188H593.053V442.188H587.677V443.188ZM592.553 442.688V469.952H593.553V442.688H592.553ZM592.553 469.952C592.553 471.822 592.749 473.629 593.142 475.374L594.117 475.154C593.742 473.485 593.553 471.752 593.553 469.952H592.553ZM593.142 475.374C593.538 477.136 594.201 478.709 595.136 480.088L595.963 479.528C595.106 478.261 594.489 476.806 594.117 475.154L593.142 475.374ZM595.136 480.088C596.079 481.482 597.336 482.601 598.895 483.447L599.372 482.569C597.944 481.794 596.812 480.78 595.963 479.528L595.136 480.088ZM598.905 483.453C600.489 484.267 602.451 484.66 604.765 484.66V483.66C602.557 483.66 600.765 483.285 599.362 482.563L598.905 483.453ZM604.765 484.66C607.08 484.66 609.042 484.267 610.626 483.453L610.169 482.563C608.766 483.285 606.974 483.66 604.765 483.66V484.66ZM610.636 483.447C612.195 482.601 613.452 481.482 614.395 480.088L613.568 479.528C612.719 480.78 611.587 481.794 610.159 482.569L610.636 483.447ZM614.395 480.088C615.33 478.709 615.993 477.136 616.389 475.374L615.414 475.154C615.042 476.806 614.425 478.261 613.568 479.528L614.395 480.088ZM616.389 475.374C616.782 473.629 616.977 471.822 616.977 469.952H615.977C615.977 471.752 615.789 473.485 615.414 475.154L616.389 475.374ZM616.977 469.952V442.688H615.977V469.952H616.977ZM616.477 443.188H621.853V442.188H616.477V443.188ZM621.353 442.688V470.72H622.353V442.688H621.353ZM640.612 442.688V442.188H640.112V442.688H640.612ZM645.988 442.688H646.488V442.188H645.988V442.688ZM645.988 483.008H645.488V483.508H645.988V483.008ZM666.724 483.008H667.224V482.508H666.724V483.008ZM666.724 488V488.5H667.224V488H666.724ZM640.612 488H640.112V488.5H640.612V488ZM640.612 443.188H645.988V442.188H640.612V443.188ZM645.488 442.688V483.008H646.488V442.688H645.488ZM645.988 483.508H666.724V482.508H645.988V483.508ZM666.224 483.008V488H667.224V483.008H666.224ZM666.724 487.5H640.612V488.5H666.724V487.5ZM641.112 488V442.688H640.112V488H641.112ZM704.817 447.68V448.18H705.317V447.68H704.817ZM689.841 447.68V447.18H689.341V447.68H689.841ZM689.841 488V488.5H690.341V488H689.841ZM684.465 488H683.965V488.5H684.465V488ZM684.465 447.68H684.965V447.18H684.465V447.68ZM669.489 447.68H668.989V448.18H669.489V447.68ZM669.489 442.688V442.188H668.989V442.688H669.489ZM704.817 442.688H705.317V442.188H704.817V442.688ZM704.817 447.18H689.841V448.18H704.817V447.18ZM689.341 447.68V488H690.341V447.68H689.341ZM689.841 487.5H684.465V488.5H689.841V487.5ZM684.965 488V447.68H683.965V488H684.965ZM684.465 447.18H669.489V448.18H684.465V447.18ZM669.989 447.68V442.688H668.989V447.68H669.989ZM669.489 443.188H704.817V442.188H669.489V443.188ZM704.317 442.688V447.68H705.317V442.688H704.317ZM718.847 442.688V442.188H718.347V442.688H718.847ZM724.223 442.688H724.723V442.188H724.223V442.688ZM724.223 488V488.5H724.723V488H724.223ZM718.847 488H718.347V488.5H718.847V488ZM718.847 443.188H724.223V442.188H718.847V443.188ZM723.723 442.688V488H724.723V442.688H723.723ZM724.223 487.5H718.847V488.5H724.223V487.5ZM719.347 488V442.688H718.347V488H719.347ZM743.152 442.688V442.188H742.652V442.688H743.152ZM749.936 442.688L750.346 442.402L750.197 442.188H749.936V442.688ZM776.176 480.32L775.766 480.606L775.915 480.82H776.176V480.32ZM776.304 480.32V480.82H776.804V480.32H776.304ZM776.304 442.688V442.188H775.804V442.688H776.304ZM781.68 442.688H782.18V442.188H781.68V442.688ZM781.68 488V488.5H782.18V488H781.68ZM774.896 488L774.486 488.286L774.635 488.5H774.896V488ZM748.656 450.368L749.066 450.082L748.917 449.868H748.656V450.368ZM748.528 450.368V449.868H748.028V450.368H748.528ZM748.528 488V488.5H749.028V488H748.528ZM743.152 488H742.652V488.5H743.152V488ZM743.152 443.188H749.936V442.188H743.152V443.188ZM749.526 442.974L775.766 480.606L776.586 480.034L750.346 442.402L749.526 442.974ZM776.176 480.82H776.304V479.82H776.176V480.82ZM776.804 480.32V442.688H775.804V480.32H776.804ZM776.304 443.188H781.68V442.188H776.304V443.188ZM781.18 442.688V488H782.18V442.688H781.18ZM781.68 487.5H774.896V488.5H781.68V487.5ZM775.306 487.714L749.066 450.082L748.246 450.654L774.486 488.286L775.306 487.714ZM748.656 449.868H748.528V450.868H748.656V449.868ZM748.028 450.368V488H749.028V450.368H748.028ZM748.528 487.5H743.152V488.5H748.528V487.5ZM743.652 488V442.688H742.652V488H743.652ZM839.173 484.928L839.416 485.365L839.673 485.222V484.928H839.173ZM830.917 488.128L830.802 487.641L830.8 487.642L830.917 488.128ZM812.485 487.424L812.302 487.89L812.302 487.89L812.485 487.424ZM804.805 482.56L804.455 482.917L804.458 482.921L804.805 482.56ZM799.813 475.072L799.349 475.26L799.35 475.262L799.813 475.072ZM799.877 455.616L799.418 455.417L799.417 455.42L799.877 455.616ZM805.125 448.128L805.464 448.495L805.467 448.492L805.125 448.128ZM812.869 443.264L812.686 442.798L812.686 442.798L812.869 443.264ZM830.981 442.88L830.825 443.355L830.827 443.356L830.981 442.88ZM838.405 447.488L838.766 447.833L839.103 447.48L838.758 447.134L838.405 447.488ZM834.373 451.712L834.005 452.051L834.366 452.443L834.734 452.057L834.373 451.712ZM828.741 447.872L828.55 448.334L828.553 448.336L828.741 447.872ZM814.789 447.936L814.594 447.476L814.594 447.476L814.789 447.936ZM808.965 451.84L808.611 451.486L808.606 451.491L808.965 451.84ZM805.125 457.792L804.661 457.603L804.659 457.611L805.125 457.792ZM805.125 472.832L804.658 473.013L804.661 473.021L805.125 472.832ZM808.965 478.848L808.602 479.192L808.611 479.202L808.965 478.848ZM814.917 482.752L815.105 482.289L815.105 482.289L814.917 482.752ZM828.293 483.52L828.397 484.009L828.406 484.007L828.293 483.52ZM833.797 481.536L834.025 481.981L834.297 481.842V481.536H833.797ZM833.797 467.648H834.297V467.148H833.797V467.648ZM823.365 467.648H822.865V468.148H823.365V467.648ZM823.365 462.656V462.156H822.865V462.656H823.365ZM839.173 462.656H839.673V462.156H839.173V462.656ZM838.929 484.491C836.367 485.919 833.658 486.969 830.802 487.641L831.031 488.615C833.977 487.921 836.773 486.838 839.416 485.365L838.929 484.491ZM830.8 487.642C827.98 488.315 825.117 488.652 822.213 488.652V489.652C825.196 489.652 828.136 489.306 831.033 488.614L830.8 487.642ZM822.213 488.652C818.726 488.652 815.546 488.085 812.667 486.958L812.302 487.89C815.311 489.067 818.616 489.652 822.213 489.652V488.652ZM812.667 486.958C809.781 485.829 807.277 484.243 805.151 482.199L804.458 482.921C806.684 485.059 809.3 486.715 812.302 487.89L812.667 486.958ZM805.154 482.203C803.072 480.162 801.445 477.724 800.275 474.882L799.35 475.262C800.569 478.223 802.27 480.777 804.455 482.917L805.154 482.203ZM800.276 474.884C799.108 472.006 798.521 468.828 798.521 465.344H797.521C797.521 468.942 798.128 472.25 799.349 475.26L800.276 474.884ZM798.521 465.344C798.521 461.818 799.129 458.644 800.336 455.812L799.417 455.42C798.149 458.391 797.521 461.702 797.521 465.344H798.521ZM800.335 455.815C801.589 452.931 803.299 450.493 805.464 448.495L804.785 447.761C802.512 449.859 800.724 452.413 799.418 455.417L800.335 455.815ZM805.467 448.492C807.638 446.447 810.164 444.859 813.051 443.73L812.686 442.798C809.685 443.973 807.049 445.628 804.782 447.764L805.467 448.492ZM813.051 443.73C815.932 442.602 819.049 442.036 822.405 442.036V441.036C818.934 441.036 815.693 441.622 812.686 442.798L813.051 443.73ZM822.405 442.036C825.34 442.036 828.146 442.476 830.825 443.355L831.136 442.405C828.353 441.492 825.442 441.036 822.405 441.036V442.036ZM830.827 443.356C833.521 444.226 835.928 445.718 838.051 447.842L838.758 447.134C836.529 444.906 833.987 443.326 831.134 442.404L830.827 443.356ZM838.043 447.143L834.011 451.367L834.734 452.057L838.766 447.833L838.043 447.143ZM834.74 451.373C833.151 449.652 831.211 448.33 828.928 447.408L828.553 448.336C830.707 449.206 832.522 450.444 834.005 452.051L834.74 451.373ZM828.931 447.41C826.696 446.489 824.391 446.028 822.021 446.028V447.028C824.258 447.028 826.433 447.463 828.55 448.334L828.931 447.41ZM822.021 446.028C819.356 446.028 816.879 446.509 814.594 447.476L814.983 448.396C817.136 447.486 819.479 447.028 822.021 447.028V446.028ZM814.594 447.476C812.317 448.439 810.322 449.776 808.611 451.486L809.318 452.194C810.935 450.576 812.823 449.311 814.983 448.396L814.594 447.476ZM808.606 451.491C806.937 453.204 805.623 455.244 804.661 457.603L805.588 457.981C806.504 455.732 807.749 453.804 809.323 452.189L808.606 451.491ZM804.659 457.611C803.738 459.978 803.281 462.558 803.281 465.344H804.281C804.281 462.669 804.719 460.214 805.591 457.973L804.659 457.611ZM803.281 465.344C803.281 468.089 803.738 470.647 804.659 473.013L805.591 472.651C804.719 470.409 804.281 467.975 804.281 465.344H803.281ZM804.661 473.021C805.622 475.379 806.935 477.438 808.602 479.192L809.327 478.504C807.751 476.845 806.504 474.893 805.588 472.643L804.661 473.021ZM808.611 479.202C810.325 480.915 812.366 482.253 814.728 483.215L815.105 482.289C812.859 481.374 810.932 480.109 809.318 478.494L808.611 479.202ZM814.728 483.215C817.098 484.181 819.702 484.66 822.533 484.66V483.66C819.816 483.66 817.343 483.201 815.105 482.289L814.728 483.215ZM822.533 484.66C824.406 484.66 826.361 484.442 828.397 484.009L828.188 483.031C826.213 483.451 824.328 483.66 822.533 483.66V484.66ZM828.406 484.007C830.447 483.529 832.321 482.855 834.025 481.981L833.568 481.091C831.944 481.924 830.148 482.572 828.179 483.033L828.406 484.007ZM834.297 481.536V467.648H833.297V481.536H834.297ZM833.797 467.148H823.365V468.148H833.797V467.148ZM823.865 467.648V462.656H822.865V467.648H823.865ZM823.365 463.156H839.173V462.156H823.365V463.156ZM838.673 462.656V484.928H839.673V462.656H838.673Z" fill="#B7B7B7" mask="url(#path-10-outside-1_664_74)"/>
</g>
<defs>
<filter id="filter0_i_664_74" x="12" y="6" width="929" height="362" filterUnits="userSpaceOnUse" color-interpolation-filters="sRGB">
<feFlood flood-opacity="0" result="BackgroundImageFix"/>
<feBlend mode="normal" in="SourceGraphic" in2="BackgroundImageFix" result="shape"/>
<feColorMatrix in="SourceAlpha" type="matrix" values="0 0 0 0 0 0 0 0 0 0 0 0 0 0 0 0 0 0 127 0" result="hardAlpha"/>
<feOffset dx="1" dy="2"/>
<feGaussianBlur stdDeviation="1"/>
<feComposite in2="hardAlpha" operator="arithmetic" k2="-1" k3="1"/>
<feColorMatrix type="matrix" values="0 0 0 0 1 0 0 0 0 1 0 0 0 0 1 0 0 0 1 0"/>
<feBlend mode="normal" in2="shape" result="effect1_innerShadow_664_74"/>
</filter>
<filter id="filter1_d_664_74" x="0" y="0" width="253" height="376" filterUnits="userSpaceOnUse" color-interpolation-filters="sRGB">
<feFlood flood-opacity="0" result="BackgroundImageFix"/>
<feColorMatrix in="SourceAlpha" type="matrix" values="0 0 0 0 0 0 0 0 0 0 0 0 0 0 0 0 0 0 127 0" result="hardAlpha"/>
<feOffset dx="-2" dy="4"/>
<feGaussianBlur stdDeviation="5"/>
<feComposite in2="hardAlpha" operator="out"/>
<feColorMatrix type="matrix" values="0 0 0 0 0 0 0 0 0 0 0 0 0 0 0 0 0 0 1 0"/>
<feBlend mode="normal" in2="BackgroundImageFix" result="effect1_dropShadow_664_74"/>
<feBlend mode="normal" in="SourceGraphic" in2="effect1_dropShadow_664_74" result="shape"/>
</filter>
<filter id="filter2_d_664_74" x="501" y="0" width="207" height="376" filterUnits="userSpaceOnUse" color-interpolation-filters="sRGB">
<feFlood flood-opacity="0" result="BackgroundImageFix"/>
<feColorMatrix in="SourceAlpha" type="matrix" values="0 0 0 0 0 0 0 0 0 0 0 0 0 0 0 0 0 0 127 0" result="hardAlpha"/>
<feOffset dx="-2" dy="4"/>
<feGaussianBlur stdDeviation="5"/>
<feComposite in2="hardAlpha" operator="out"/>
<feColorMatrix type="matrix" values="0 0 0 0 0 0 0 0 0 0 0 0 0 0 0 0 0 0 1 0"/>
<feBlend mode="normal" in2="BackgroundImageFix" result="effect1_dropShadow_664_74"/>
<feBlend mode="normal" in="SourceGraphic" in2="effect1_dropShadow_664_74" result="shape"/>
</filter>
<filter id="filter3_d_664_74" x="741" y="0" width="207" height="376" filterUnits="userSpaceOnUse" color-interpolation-filters="sRGB">
<feFlood flood-opacity="0" result="BackgroundImageFix"/>
<feColorMatrix in="SourceAlpha" type="matrix" values="0 0 0 0 0 0 0 0 0 0 0 0 0 0 0 0 0 0 127 0" result="hardAlpha"/>
<feOffset dx="-2" dy="4"/>
<feGaussianBlur stdDeviation="5"/>
<feComposite in2="hardAlpha" operator="out"/>
<feColorMatrix type="matrix" values="0 0 0 0 0 0 0 0 0 0 0 0 0 0 0 0 0 0 1 0"/>
<feBlend mode="normal" in2="BackgroundImageFix" result="effect1_dropShadow_664_74"/>
<feBlend mode="normal" in="SourceGraphic" in2="effect1_dropShadow_664_74" result="shape"/>
</filter>
<filter id="filter4_d_664_74" x="549" y="0" width="159" height="334" filterUnits="userSpaceOnUse" color-interpolation-filters="sRGB">
<feFlood flood-opacity="0" result="BackgroundImageFix"/>
<feColorMatrix in="SourceAlpha" type="matrix" values="0 0 0 0 0 0 0 0 0 0 0 0 0 0 0 0 0 0 127 0" result="hardAlpha"/>
<feOffset dx="-2" dy="4"/>
<feGaussianBlur stdDeviation="5"/>
<feComposite in2="hardAlpha" operator="out"/>
<feColorMatrix type="matrix" values="0 0 0 0 0 0 0 0 0 0 0 0 0 0 0 0 0 0 1 0"/>
<feBlend mode="normal" in2="BackgroundImageFix" result="effect1_dropShadow_664_74"/>
<feBlend mode="normal" in="SourceGraphic" in2="effect1_dropShadow_664_74" result="shape"/>
</filter>
<filter id="filter5_d_664_74" x="789" y="0" width="159" height="334" filterUnits="userSpaceOnUse" color-interpolation-filters="sRGB">
<feFlood flood-opacity="0" result="BackgroundImageFix"/>
<feColorMatrix in="SourceAlpha" type="matrix" values="0 0 0 0 0 0 0 0 0 0 0 0 0 0 0 0 0 0 127 0" result="hardAlpha"/>
<feOffset dx="-2" dy="4"/>
<feGaussianBlur stdDeviation="5"/>
<feComposite in2="hardAlpha" operator="out"/>
<feColorMatrix type="matrix" values="0 0 0 0 0 0 0 0 0 0 0 0 0 0 0 0 0 0 1 0"/>
<feBlend mode="normal" in2="BackgroundImageFix" result="effect1_dropShadow_664_74"/>
<feBlend mode="normal" in="SourceGraphic" in2="effect1_dropShadow_664_74" result="shape"/>
</filter>
<filter id="filter6_d_664_74" x="274" y="55" width="146" height="276" filterUnits="userSpaceOnUse" color-interpolation-filters="sRGB">
<feFlood flood-opacity="0" result="BackgroundImageFix"/>
<feColorMatrix in="SourceAlpha" type="matrix" values="0 0 0 0 0 0 0 0 0 0 0 0 0 0 0 0 0 0 127 0" result="hardAlpha"/>
<feOffset dx="-2" dy="4"/>
<feGaussianBlur stdDeviation="5"/>
<feComposite in2="hardAlpha" operator="out"/>
<feColorMatrix type="matrix" values="0 0 0 0 0 0 0 0 0 0 0 0 0 0 0 0 0 0 1 0"/>
<feBlend mode="normal" in2="BackgroundImageFix" result="effect1_dropShadow_664_74"/>
<feBlend mode="normal" in="SourceGraphic" in2="effect1_dropShadow_664_74" result="shape"/>
</filter>
<filter id="filter7_d_664_74" x="226" y="6" width="242" height="374" filterUnits="userSpaceOnUse" color-interpolation-filters="sRGB">
<feFlood flood-opacity="0" result="BackgroundImageFix"/>
<feColorMatrix in="SourceAlpha" type="matrix" values="0 0 0 0 0 0 0 0 0 0 0 0 0 0 0 0 0 0 127 0" result="hardAlpha"/>
<feOffset dx="-2" dy="4"/>
<feGaussianBlur stdDeviation="5"/>
<feComposite in2="hardAlpha" operator="out"/>
<feColorMatrix type="matrix" values="0 0 0 0 0 0 0 0 0 0 0 0 0 0 0 0 0 0 1 0"/>
<feBlend mode="normal" in2="BackgroundImageFix" result="effect1_dropShadow_664_74"/>
<feBlend mode="normal" in="SourceGraphic" in2="effect1_dropShadow_664_74" result="shape"/>
</filter>
<filter id="filter8_d_664_74" x="320" y="163" width="58" height="58" filterUnits="userSpaceOnUse" color-interpolation-filters="sRGB">
<feFlood flood-opacity="0" result="BackgroundImageFix"/>
<feColorMatrix in="SourceAlpha" type="matrix" values="0 0 0 0 0 0 0 0 0 0 0 0 0 0 0 0 0 0 127 0" result="hardAlpha"/>
<feOffset dx="-2" dy="4"/>
<feGaussianBlur stdDeviation="5"/>
<feComposite in2="hardAlpha" operator="out"/>
<feColorMatrix type="matrix" values="0 0 0 0 0 0 0 0 0 0 0 0 0 0 0 0 0 0 1 0"/>
<feBlend mode="normal" in2="BackgroundImageFix" result="effect1_dropShadow_664_74"/>
<feBlend mode="normal" in="SourceGraphic" in2="effect1_dropShadow_664_74" result="shape"/>
</filter>
<filter id="filter9_d_664_74" x="100.632" y="435.536" width="746.541" height="67.6157" filterUnits="userSpaceOnUse" color-interpolation-filters="sRGB">
<feFlood flood-opacity="0" result="BackgroundImageFix"/>
<feColorMatrix in="SourceAlpha" type="matrix" values="0 0 0 0 0 0 0 0 0 0 0 0 0 0 0 0 0 0 127 0" result="hardAlpha"/>
<feOffset dx="-2" dy="4"/>
<feGaussianBlur stdDeviation="5"/>
<feComposite in2="hardAlpha" operator="out"/>
<feColorMatrix type="matrix" values="0 0 0 0 0 0 0 0 0 0 0 0 0 0 0 0 0 0 1 0"/>
<feBlend mode="normal" in2="BackgroundImageFix" result="effect1_dropShadow_664_74"/>
<feBlend mode="normal" in="SourceGraphic" in2="effect1_dropShadow_664_74" result="shape"/>
</filter>
<linearGradient id="paint0_linear_664_74" x1="12" y1="28" x2="169.537" y2="391.218" gradientUnits="userSpaceOnUse">
<stop stop-color="#D4D4D4"/>
<stop offset="1"/>
</linearGradient>
<linearGradient id="paint1_linear_664_74" x1="12" y1="28" x2="169.537" y2="391.218" gradientUnits="userSpaceOnUse">
<stop stop-color="#D4D4D4"/>
<stop offset="1"/>
</linearGradient>
<linearGradient id="paint2_linear_664_74" x1="12" y1="28" x2="169.537" y2="391.218" gradientUnits="userSpaceOnUse">
<stop stop-color="#D4D4D4"/>
<stop offset="1"/>
</linearGradient>
<linearGradient id="paint3_linear_664_74" x1="12" y1="28" x2="169.537" y2="391.218" gradientUnits="userSpaceOnUse">
<stop stop-color="#D4D4D4"/>
<stop offset="1"/>
</linearGradient>
<linearGradient id="paint4_linear_664_74" x1="513" y1="28" x2="693.5" y2="362" gradientUnits="userSpaceOnUse">
<stop stop-color="#D4D4D4"/>
<stop offset="1"/>
</linearGradient>
<linearGradient id="paint5_linear_664_74" x1="513" y1="28" x2="693.5" y2="362" gradientUnits="userSpaceOnUse">
<stop stop-color="#D4D4D4"/>
<stop offset="1"/>
</linearGradient>
<linearGradient id="paint6_linear_664_74" x1="753" y1="28" x2="933.5" y2="362" gradientUnits="userSpaceOnUse">
<stop stop-color="#D4D4D4"/>
<stop offset="1"/>
</linearGradient>
<linearGradient id="paint7_linear_664_74" x1="753" y1="28" x2="933.5" y2="362" gradientUnits="userSpaceOnUse">
<stop stop-color="#D4D4D4"/>
<stop offset="1"/>
</linearGradient>
<linearGradient id="paint8_linear_664_74" x1="561" y1="25.4045" x2="733.961" y2="295.124" gradientUnits="userSpaceOnUse">
<stop stop-color="#D4D4D4"/>
<stop offset="1"/>
</linearGradient>
<linearGradient id="paint9_linear_664_74" x1="561" y1="25.4045" x2="733.961" y2="295.124" gradientUnits="userSpaceOnUse">
<stop stop-color="#D4D4D4"/>
<stop offset="1"/>
</linearGradient>
<linearGradient id="paint10_linear_664_74" x1="801" y1="25.4045" x2="973.961" y2="295.124" gradientUnits="userSpaceOnUse">
<stop stop-color="#D4D4D4"/>
<stop offset="1"/>
</linearGradient>
<linearGradient id="paint11_linear_664_74" x1="801" y1="25.4045" x2="973.961" y2="295.124" gradientUnits="userSpaceOnUse">
<stop stop-color="#D4D4D4"/>
<stop offset="1"/>
</linearGradient>
<linearGradient id="paint12_linear_664_74" x1="296.216" y1="75.4633" x2="433.093" y2="274.155" gradientUnits="userSpaceOnUse">
<stop stop-color="#D4D4D4"/>
<stop offset="1"/>
</linearGradient>
<linearGradient id="paint13_linear_664_74" x1="256" y1="32" x2="425.5" y2="345.5" gradientUnits="userSpaceOnUse">
<stop stop-color="#D4D4D4"/>
<stop offset="1"/>
</linearGradient>
<linearGradient id="paint14_linear_664_74" x1="332" y1="171.348" x2="344.101" y2="213.977" gradientUnits="userSpaceOnUse">
<stop stop-color="#D4D4D4"/>
<stop offset="1"/>
</linearGradient>
<linearGradient id="paint15_linear_664_74" x1="335.081" y1="171.147" x2="348.307" y2="210.153" gradientUnits="userSpaceOnUse">
<stop/>
<stop offset="1" stop-color="white"/>
</linearGradient>
<linearGradient id="paint16_linear_664_74" x1="107" y1="432.5" x2="850" y2="503" gradientUnits="userSpaceOnUse">
<stop stop-color="white" stop-opacity="0.5"/>
<stop offset="1" stop-opacity="0.5"/>
</linearGradient>
</defs>
</svg>
